<svg width="498" height="383" viewBox="0 0 498 383" fill="none" xmlns="http://www.w3.org/2000/svg">
<path d="M3.6224 203.158C11.2597 167.07 36.2706 132.915 68.979 129.71C86.5141 127.991 103.732 135.126 121.275 136.726C138.82 138.327 159.516 131.752 165.815 113.176C172.779 92.6426 158.469 70.2073 160.632 48.3544C162.677 27.6761 179.817 11.9247 197.92 8.15687C216.025 4.39092 234.642 10.3339 251.55 18.5572C268.457 26.7823 284.525 37.3583 302.078 43.626C319.631 49.8937 339.537 51.4329 355.837 41.764C367.485 34.8547 376.247 22.8922 387.697 15.5742C406.547 3.52773 431.99 6.4324 448.325 22.4988C471.694 45.4784 472.729 85.9701 467.509 120.479C462.29 154.987 452.702 190.577 461.238 224.23C467.103 247.356 480.94 266.711 490.015 288.472C499.089 310.234 502.554 338.339 488.777 356.676C482.441 365.109 473.561 370.006 464.093 373.378H26.6627C15.73 357.054 11.2208 334.363 7.83205 313.52C1.89885 277.025 -4.0149 239.248 3.6224 203.158Z" fill="#1E293B"/>
<path d="M456.101 22.8691C456.252 26.2052 455.687 29.5351 454.445 32.6437C453.202 35.7523 451.309 38.5704 448.888 40.9159C445.649 44.0669 443.295 47.6648 442.15 51.7306H421.399C420.313 47.7546 418.129 44.1853 414.921 41.1699C412.543 38.9416 410.652 36.262 409.362 33.2939C408.072 30.3258 407.41 27.1312 407.416 23.9042C407.416 10.1027 419.335 -0.967938 433.623 0.0671267C445.848 0.966602 455.582 10.8532 456.101 22.8691Z" fill="#6950E8"/>
<path d="M425.203 26.4838H427.318V57.5912H428.497V26.4819H435.039V57.5912H436.219V26.4819H438.334C440.213 26.4819 441.742 24.9828 441.742 23.1361C441.741 22.2587 441.389 21.4168 440.762 20.7912C440.136 20.1657 439.284 19.8063 438.39 19.7903C438.346 19.7903 438.297 19.7903 438.252 19.7941C437.384 19.8442 436.567 20.218 435.97 20.8392C435.373 21.4603 435.04 22.2819 435.039 23.1361V25.3246H428.497V23.1361C428.495 22.2587 428.143 21.4168 427.517 20.7912C426.89 20.1657 426.038 19.8063 425.145 19.7903C425.1 19.7903 425.051 19.7903 425.007 19.7941C424.138 19.8442 423.322 20.218 422.724 20.8392C422.127 21.4603 421.794 22.2819 421.793 23.1361C421.793 24.9828 423.322 26.4838 425.203 26.4838ZM436.217 23.1361C436.217 21.9483 437.186 20.9781 438.388 20.9476C438.964 20.9774 439.506 21.2248 439.9 21.6379C440.294 22.051 440.509 22.5978 440.502 23.1636C440.494 23.7295 440.264 24.2705 439.859 24.6734C439.454 25.0762 438.906 25.3096 438.33 25.3246H436.217V23.1361ZM425.143 20.9476C425.724 20.962 426.277 21.1989 426.684 21.6077C427.09 22.0165 427.317 22.565 427.318 23.1361V25.3246H425.203C424.627 25.3096 424.079 25.0762 423.674 24.6734C423.269 24.2705 423.039 23.7295 423.031 23.1636C423.024 22.5978 423.24 22.051 423.634 21.6379C424.028 21.2248 424.569 20.9774 425.145 20.9476H425.143Z" fill="white"/>
<path d="M424.701 59.8818V62.2136C424.701 63.6955 425.925 64.8967 427.432 64.8967H436.099C437.608 64.8967 438.83 63.6955 438.83 62.2136V59.8837L424.701 59.8818Z" fill="#20154F"/>
<path d="M442.092 51.729H421.446C421.131 51.73 420.829 51.8535 420.606 52.0724C420.383 52.2914 420.257 52.5881 420.256 52.8977V57.8057C420.256 59.2876 421.479 60.4889 422.987 60.4889H440.553C442.055 60.4889 443.284 59.2819 443.284 57.8076V52.8997C443.284 52.5897 443.158 52.2925 442.935 52.0731C442.712 51.8537 442.41 51.73 442.094 51.729H442.092Z" fill="#20154F"/>
<path d="M414.164 321.75C414.273 321.592 414.374 321.439 414.448 321.303C415.535 319.342 416.837 316.624 417.963 314.172C419.617 310.58 419.663 306.534 418.37 302.802C418.363 302.783 418.357 302.764 418.35 302.745C416.541 297.462 417.551 290.868 420.906 286.05C421.897 284.631 423.109 283.334 424.573 282.63C426.038 281.923 427.783 281.904 428.97 282.884C430.697 284.31 431.17 287.61 433.454 287.734C434.944 287.813 436.267 286.459 436.634 284.807C437.549 280.708 434.471 277.922 434.699 273.99C434.771 272.72 435.28 271.439 436.236 270.648C438.288 268.952 440.778 270.49 442.682 271.874C444.526 273.217 447.23 274.322 448.937 272.439C450.888 270.281 449.294 266.89 449.623 263.964C449.985 260.731 453.096 258.124 455.984 258.204C458.873 258.285 461.283 260.649 462.182 263.622C462.986 266.267 462.647 269.115 461.956 271.888C461.441 273.969 459.34 274.834 458.98 276.906C458.842 277.716 459.052 278.543 459.519 279.122C460.441 280.269 461.744 279.882 462.931 280.017C466.207 280.39 465.013 285.563 463.009 287.316C460.838 289.212 457.941 289.688 455.99 292.079C455.173 293.082 454.687 294.409 454.901 295.656C455.582 299.628 462.04 298.429 462.4 302.256C462.472 303.029 462.225 303.835 461.791 304.5C459.653 307.775 455.467 306.675 452.922 309.169C450.403 311.642 451.024 316.017 452.456 319.067C453.883 322.115 455.944 325.111 455.564 328.69C455.091 333.166 450.742 336.51 446.713 336.864C443.665 337.129 425.14 345.814 414.164 352.09V321.75Z" fill="#61BA76"/>
<path d="M414.164 337.838C416.796 334.612 419.393 331.299 421.039 328.969C419.839 325.923 419.556 321.395 419.545 321.197C419.531 320.958 419.698 320.731 419.916 320.692C420.14 320.658 420.325 320.82 420.34 321.061C420.342 321.105 420.597 325.236 421.62 328.15C425.463 322.618 428.991 316.881 432.187 310.966C430.892 306.916 430.779 300.738 430.775 300.471C430.771 300.228 430.946 300.01 431.166 299.984C431.384 299.957 431.567 300.133 431.571 300.375C431.571 300.436 431.672 306.014 432.744 309.943C438.222 299.682 440.902 292.364 440.959 292.209C441.042 291.976 441.278 291.846 441.478 291.919C441.682 291.991 441.778 292.238 441.694 292.473C441.649 292.593 439.971 297.171 436.586 304.128C439.399 304.779 443.492 303.459 443.532 303.444C443.746 303.375 443.96 303.505 444.003 303.74C444.048 303.973 443.91 304.219 443.694 304.292C443.534 304.343 440.365 305.373 437.562 305.176C437.097 305.142 436.635 305.064 436.185 304.943C435.251 306.839 434.195 308.896 433.018 311.077C432.999 311.177 432.948 311.269 432.874 311.341C431.554 313.778 430.18 316.187 428.752 318.565C433.438 319.967 437.111 319.719 437.148 319.717C437.368 319.697 437.543 319.885 437.537 320.127C437.531 320.372 437.35 320.582 437.13 320.599C437.053 320.605 436.132 320.67 434.648 320.565C432.484 320.404 430.345 319.999 428.275 319.358C426.254 322.687 424.122 325.949 421.883 329.141C421.852 329.233 421.795 329.314 421.718 329.374C420.292 331.397 418.82 333.388 417.302 335.346C421.93 335.067 425.772 334.36 425.811 334.353C426.032 334.309 426.221 334.473 426.239 334.715C426.256 334.954 426.093 335.183 425.873 335.223C425.83 335.233 421.564 336.02 416.59 336.266C416.047 336.954 415.162 338.019 414.164 339.203V337.838Z" fill="#7CD194"/>
<path d="M414.164 346.347C415.623 345.258 416.971 344.338 417.852 343.774C422.863 340.566 430.979 335.549 431.234 333.939C431.58 331.741 431.514 329.556 431.874 327.358C432.882 321.194 437.481 315.167 443.515 312.104C445.293 311.202 447.234 310.534 449.11 310.585C450.987 310.635 452.782 311.506 453.465 313.087C454.457 315.384 453.154 318.902 455.422 320.191C456.901 321.031 458.982 320.367 460.252 318.915C463.404 315.318 461.766 310.979 464.126 307.192C464.888 305.97 466.1 304.959 467.505 304.665C470.518 304.033 472.23 306.831 473.424 309.18C474.583 311.452 476.747 313.935 479.509 312.938C482.668 311.798 482.874 307.616 484.792 304.879C486.913 301.86 491.5 300.863 494.408 302.421C497.314 303.98 498.495 307.558 497.809 310.967C497.198 314.002 495.311 316.654 493.107 319.053C491.453 320.852 488.839 320.638 487.354 322.51C486.771 323.241 486.541 324.171 486.703 324.983C487.024 326.593 488.566 326.873 489.704 327.616C492.85 329.661 488.829 334.184 485.835 334.896C482.594 335.667 479.377 334.657 476.091 336.032C474.714 336.609 473.498 337.677 473.043 339.025C471.592 343.312 478.838 345.426 477.134 349.408C476.789 350.214 476.103 350.886 475.299 351.323C471.343 353.479 467.662 350.244 463.715 351.419C459.805 352.584 458.07 357.243 457.883 360.998C457.751 363.63 457.945 366.395 457.276 368.967L446.985 371.45L425.992 369.662C426.225 366.889 420.266 369.891 418.068 370.208C417.387 370.306 415.934 370.575 414.164 370.888V346.347Z" fill="#7CD194"/>
<path d="M414.164 359.421C419.326 357.099 424.439 354.675 429.501 352.151C429.921 348.515 432.084 343.878 432.18 343.675C432.296 343.429 432.588 343.29 432.831 343.364C433.078 343.444 433.181 343.7 433.065 343.947C433.043 343.992 431.069 348.221 430.538 351.633C437.446 348.117 444.152 344.231 450.627 339.993C451.495 335.311 454.722 329.123 454.86 328.858C454.988 328.614 455.286 328.487 455.523 328.573C455.761 328.657 455.854 328.927 455.726 329.169C455.695 329.23 452.778 334.814 451.747 339.26C462.894 331.883 469.592 325.995 469.732 325.869C469.944 325.682 470.253 325.673 470.421 325.846C470.588 326.024 470.553 326.318 470.343 326.507C470.23 326.606 466.04 330.288 458.817 335.458C461.34 337.543 466.232 338.326 466.285 338.334C466.542 338.372 466.687 338.613 466.606 338.867C466.565 338.991 466.481 339.098 466.369 339.169C466.257 339.24 466.124 339.271 465.991 339.256C465.798 339.226 462.003 338.626 459.249 336.997C458.792 336.726 458.363 336.412 457.967 336.061C455.988 337.465 453.796 338.964 451.415 340.526C451.341 340.616 451.24 340.682 451.127 340.715C448.458 342.459 445.751 344.145 443.007 345.772C447.034 349.561 450.923 351.194 450.964 351.211C451.197 351.307 451.273 351.58 451.137 351.818C451 352.057 450.699 352.174 450.466 352.078C450.382 352.044 449.407 351.637 447.948 350.774C445.83 349.511 443.865 348.016 442.091 346.317C438.222 348.587 434.28 350.733 430.269 352.752C430.188 352.828 430.087 352.879 429.977 352.899C427.425 354.178 424.844 355.401 422.235 356.566C427.112 358.655 431.419 359.918 431.466 359.933C431.713 360.002 431.82 360.261 431.705 360.51C431.592 360.758 431.302 360.901 431.055 360.828C427.635 359.786 424.281 358.546 421.01 357.114C419.632 357.718 416.901 358.997 414.164 360.257V359.421Z" fill="#61BA76"/>
<path d="M310.933 7.05127H151.341C140.807 7.05127 132.268 15.4349 132.268 25.7779V349.933C132.268 360.274 140.807 368.657 151.341 368.657H310.935C321.469 368.657 330.009 360.274 330.009 349.931V25.776C330.009 15.4349 321.469 7.05127 310.933 7.05127Z" fill="#38297A"/>
<path d="M323.89 7.05127H164.298C153.765 7.05127 145.225 15.4349 145.225 25.776V349.931C145.225 360.274 153.765 368.657 164.298 368.657H323.89C334.424 368.657 342.964 360.274 342.964 349.931V25.776C342.964 15.4349 334.424 7.05127 323.89 7.05127Z" fill="#20154F"/>
<path d="M224.952 22.4083C226.516 22.4083 227.784 21.1634 227.784 19.6277C227.784 18.0921 226.516 16.8472 224.952 16.8472C223.387 16.8472 222.119 18.0921 222.119 19.6277C222.119 21.1634 223.387 22.4083 224.952 22.4083Z" fill="#38297A"/>
<path d="M234.522 22.4083C236.086 22.4083 237.354 21.1634 237.354 19.6277C237.354 18.0921 236.086 16.8472 234.522 16.8472C232.958 16.8472 231.689 18.0921 231.689 19.6277C231.689 21.1634 232.958 22.4083 234.522 22.4083Z" fill="#38297A"/>
<path d="M244.096 22.4083C245.66 22.4083 246.928 21.1634 246.928 19.6277C246.928 18.0921 245.66 16.8472 244.096 16.8472C242.532 16.8472 241.264 18.0921 241.264 19.6277C241.264 21.1634 242.532 22.4083 244.096 22.4083Z" fill="#38297A"/>
<path d="M253.668 22.4083C255.233 22.4083 256.501 21.1634 256.501 19.6277C256.501 18.0921 255.233 16.8472 253.668 16.8472C252.104 16.8472 250.836 18.0921 250.836 19.6277C250.836 21.1634 252.104 22.4083 253.668 22.4083Z" fill="#38297A"/>
<path d="M263.239 22.4083C264.803 22.4083 266.071 21.1634 266.071 19.6277C266.071 18.0921 264.803 16.8472 263.239 16.8472C261.674 16.8472 260.406 18.0921 260.406 19.6277C260.406 21.1634 261.674 22.4083 263.239 22.4083Z" fill="#38297A"/>
<path d="M167.207 358.539C160.77 358.539 155.535 353.398 155.535 347.081V43.9043C155.535 37.5851 160.77 32.446 167.207 32.446H320.986C327.423 32.446 332.658 37.5851 332.658 43.9043V347.077C332.658 353.396 327.423 358.535 320.986 358.535H167.207V358.539Z" fill="white"/>
<path d="M332.658 52.1894V43.907C332.658 37.5878 327.423 32.4487 320.986 32.4487H167.207C160.77 32.4487 155.535 37.5878 155.535 43.907V52.1894H332.658Z" fill="#D1DCF8"/>
<path d="M299.801 45.1004C301.365 45.1004 302.634 43.8555 302.634 42.3199C302.634 40.7842 301.365 39.5393 299.801 39.5393C298.237 39.5393 296.969 40.7842 296.969 42.3199C296.969 43.8555 298.237 45.1004 299.801 45.1004Z" fill="white"/>
<path d="M309.371 45.1004C310.936 45.1004 312.204 43.8555 312.204 42.3199C312.204 40.7842 310.936 39.5393 309.371 39.5393C307.807 39.5393 306.539 40.7842 306.539 42.3199C306.539 43.8555 307.807 45.1004 309.371 45.1004Z" fill="white"/>
<path d="M318.942 45.1004C320.506 45.1004 321.774 43.8555 321.774 42.3199C321.774 40.7842 320.506 39.5393 318.942 39.5393C317.377 39.5393 316.109 40.7842 316.109 42.3199C316.109 43.8555 317.377 45.1004 318.942 45.1004Z" fill="white"/>
<path d="M262.026 312.094H226.164C225.132 312.094 224.143 312.497 223.413 313.213C222.683 313.929 222.273 314.901 222.273 315.914V327.097C222.273 328.11 222.683 329.082 223.413 329.798C224.143 330.514 225.132 330.917 226.164 330.917H262.026C263.058 330.917 264.047 330.514 264.777 329.798C265.507 329.082 265.917 328.11 265.917 327.097V315.914C265.917 314.901 265.507 313.929 264.777 313.213C264.047 312.497 263.058 312.094 262.026 312.094Z" fill="#6950E8"/>
<path d="M178.475 69.2942H310.806V140.087H178.475V69.2942Z" fill="white"/>
<path d="M310.806 141.042H178.475C178.217 141.042 177.969 140.942 177.787 140.762C177.604 140.583 177.502 140.341 177.502 140.087V69.2942C177.502 69.041 177.604 68.7981 177.787 68.619C177.969 68.44 178.217 68.3394 178.475 68.3394H310.806C311.064 68.3394 311.312 68.44 311.494 68.619C311.677 68.7981 311.779 69.041 311.779 69.2942V140.087C311.779 140.341 311.677 140.583 311.494 140.762C311.312 140.942 311.064 141.042 310.806 141.042ZM179.447 139.132H309.834V70.2491H179.447V139.132Z" fill="#D1DCF8"/>
<path d="M298.459 132.809C301.457 132.809 303.888 130.423 303.888 127.479C303.888 124.535 301.457 122.149 298.459 122.149C295.46 122.149 293.029 124.535 293.029 127.479C293.029 130.423 295.46 132.809 298.459 132.809Z" fill="white"/>
<path d="M298.459 133.765C294.928 133.765 292.059 130.944 292.059 127.478C292.059 124.012 294.928 121.195 298.459 121.195C301.989 121.195 304.859 124.014 304.859 127.478C304.859 130.942 301.987 133.765 298.459 133.765ZM298.459 123.103C296.002 123.103 294.004 125.066 294.004 127.478C294.004 129.89 296.002 131.855 298.459 131.855C300.916 131.855 302.913 129.892 302.913 127.478C302.913 125.064 300.916 123.103 298.459 123.103Z" fill="#FE4C40"/>
<path d="M235.535 82.9864V90.0332C235.535 90.5679 235.088 90.9881 234.563 90.9881H188.42C187.895 90.9881 187.447 90.5679 187.447 90.0332V82.9864C187.447 82.4707 187.895 82.0315 188.42 82.0315H234.563C235.088 82.0315 235.535 82.4707 235.535 82.9864Z" fill="#7CD194"/>
<path d="M234.559 96.5385H188.428C188.17 96.5385 187.922 96.4379 187.74 96.2589C187.558 96.0798 187.455 95.8369 187.455 95.5837C187.455 95.3304 187.558 95.0876 187.74 94.9085C187.922 94.7294 188.17 94.6288 188.428 94.6288H234.559C234.817 94.6288 235.064 94.7294 235.247 94.9085C235.429 95.0876 235.532 95.3304 235.532 95.5837C235.532 95.8369 235.429 96.0798 235.247 96.2589C235.064 96.4379 234.817 96.5385 234.559 96.5385ZM234.559 102.212H188.428C188.17 102.212 187.922 102.112 187.74 101.933C187.558 101.754 187.455 101.511 187.455 101.257C187.455 101.004 187.558 100.761 187.74 100.582C187.922 100.403 188.17 100.303 188.428 100.303H234.559C234.817 100.303 235.064 100.403 235.247 100.582C235.429 100.761 235.532 101.004 235.532 101.257C235.532 101.511 235.429 101.754 235.247 101.933C235.064 102.112 234.817 102.212 234.559 102.212ZM234.559 107.886H188.428C188.17 107.886 187.922 107.785 187.74 107.606C187.558 107.427 187.455 107.184 187.455 106.931C187.455 106.678 187.558 106.435 187.74 106.256C187.922 106.077 188.17 105.976 188.428 105.976H234.559C234.817 105.976 235.064 106.077 235.247 106.256C235.429 106.435 235.532 106.678 235.532 106.931C235.532 107.184 235.429 107.427 235.247 107.606C235.064 107.785 234.817 107.886 234.559 107.886ZM234.559 113.558H188.428C188.17 113.558 187.922 113.457 187.74 113.278C187.558 113.099 187.455 112.856 187.455 112.603C187.455 112.35 187.558 112.107 187.74 111.928C187.922 111.749 188.17 111.648 188.428 111.648H234.559C234.817 111.648 235.064 111.749 235.247 111.928C235.429 112.107 235.532 112.35 235.532 112.603C235.532 112.856 235.429 113.099 235.247 113.278C235.064 113.457 234.817 113.558 234.559 113.558ZM215.339 119.234H188.428C188.17 119.234 187.922 119.133 187.74 118.954C187.558 118.775 187.455 118.532 187.455 118.279C187.455 118.025 187.558 117.783 187.74 117.604C187.922 117.424 188.17 117.324 188.428 117.324H215.339C215.597 117.324 215.845 117.424 216.027 117.604C216.209 117.783 216.312 118.025 216.312 118.279C216.312 118.532 216.209 118.775 216.027 118.954C215.845 119.133 215.597 119.234 215.339 119.234ZM297.994 112.194H262.521C262.263 112.194 262.015 112.094 261.833 111.915C261.651 111.736 261.548 111.493 261.548 111.24V82.9929C261.548 82.7397 261.651 82.4968 261.833 82.3178C262.015 82.1387 262.263 82.0381 262.521 82.0381H297.992C298.25 82.0381 298.497 82.1387 298.679 82.3178C298.862 82.4968 298.964 82.7397 298.964 82.9929V111.238C298.964 111.491 298.862 111.734 298.679 111.913C298.497 112.092 298.25 112.192 297.992 112.192L297.994 112.194ZM263.495 110.285H297.021V83.9478H263.493V110.283L263.495 110.285Z" fill="#D1DCF8"/>
<path d="M279.567 92.3239C281.046 92.3239 282.244 91.1474 282.244 89.6961C282.244 88.2448 281.046 87.0684 279.567 87.0684C278.089 87.0684 276.891 88.2448 276.891 89.6961C276.891 91.1474 278.089 92.3239 279.567 92.3239Z" fill="#FEBF06"/>
<path d="M297.991 112.194H262.542C262.29 112.194 262.047 112.098 261.866 111.927C261.685 111.755 261.578 111.521 261.569 111.274L261.55 110.649C261.544 110.518 261.567 110.387 261.615 110.265C261.664 110.143 261.737 110.032 261.832 109.939L275.35 96.67C275.532 96.491 275.779 96.3905 276.037 96.3905C276.295 96.3905 276.543 96.491 276.725 96.67L279.83 99.716L285.726 93.9277C285.912 93.7554 286.158 93.6594 286.414 93.6594C286.669 93.6594 286.915 93.7554 287.101 93.9277L298.678 105.29C298.768 105.379 298.84 105.485 298.889 105.601C298.938 105.717 298.964 105.841 298.964 105.967V111.237C298.964 111.491 298.861 111.733 298.679 111.913C298.497 112.092 298.249 112.194 297.991 112.194ZM264.232 110.284H297.018V106.362L286.415 95.9539L280.516 101.742C280.334 101.921 280.087 102.022 279.829 102.022C279.571 102.022 279.323 101.921 279.141 101.742L276.036 98.6963L264.232 110.284Z" fill="#D1DCF8"/>
<path d="M262.543 111.568C262.285 111.568 262.038 111.468 261.855 111.289C261.673 111.109 261.57 110.867 261.57 110.613V109.861C261.57 109.672 261.627 109.487 261.734 109.33C261.841 109.173 261.994 109.051 262.171 108.979C262.349 108.906 262.545 108.888 262.734 108.925C262.922 108.962 263.096 109.053 263.232 109.187L263.615 109.563C263.797 109.742 263.9 109.985 263.9 110.238C263.9 110.491 263.797 110.734 263.615 110.913L263.232 111.287C263.141 111.376 263.034 111.447 262.916 111.495C262.798 111.543 262.671 111.568 262.543 111.568Z" fill="#D1DCF8"/>
<path d="M281.696 121.97H246.33C246.072 121.97 245.825 121.869 245.642 121.69C245.46 121.511 245.357 121.268 245.357 121.015V90.5418C245.357 90.2885 245.46 90.0457 245.642 89.8666C245.825 89.6875 246.072 89.5869 246.33 89.5869H262.544C262.802 89.5869 263.05 89.6875 263.232 89.8666C263.414 90.0457 263.517 90.2885 263.517 90.5418V110.284H281.696C281.954 110.284 282.201 110.385 282.384 110.564C282.566 110.743 282.669 110.986 282.669 111.239V121.017C282.669 121.27 282.566 121.513 282.384 121.692C282.201 121.871 281.954 121.97 281.696 121.97ZM247.303 120.06H280.723V112.194H262.544C262.286 112.194 262.039 112.094 261.856 111.914C261.674 111.735 261.572 111.493 261.572 111.239V91.4966H247.303V120.06Z" fill="#D1DCF8"/>
<path d="M246.33 119.071C246.137 119.073 245.947 119.018 245.786 118.913C245.625 118.809 245.5 118.659 245.426 118.484C245.352 118.309 245.333 118.116 245.371 117.931C245.409 117.745 245.503 117.575 245.641 117.442L259.174 104.156C259.264 104.063 259.373 103.99 259.494 103.941C259.615 103.893 259.745 103.871 259.875 103.877C260.004 103.878 260.132 103.905 260.251 103.955C260.37 104.006 260.478 104.079 260.567 104.171L263.248 106.929C263.416 107.114 263.504 107.355 263.494 107.603C263.483 107.85 263.376 108.084 263.193 108.255C263.011 108.426 262.768 108.52 262.516 108.519C262.264 108.517 262.022 108.42 261.842 108.247L259.848 106.197L247.016 118.792C246.926 118.881 246.819 118.951 246.701 118.999C246.583 119.046 246.457 119.071 246.33 119.071Z" fill="#D1DCF8"/>
<path d="M178.475 226.885H309.715V282.242H178.475V226.885Z" fill="white"/>
<path d="M309.713 283.197H307.768C307.51 283.197 307.262 283.096 307.08 282.917C306.898 282.738 306.795 282.495 306.795 282.242C306.795 281.989 306.898 281.746 307.08 281.567C307.262 281.388 307.51 281.287 307.768 281.287H308.74V280.517C308.74 280.264 308.843 280.021 309.025 279.842C309.208 279.663 309.455 279.563 309.713 279.563C309.971 279.563 310.218 279.663 310.401 279.842C310.583 280.021 310.686 280.264 310.686 280.517V282.242C310.686 282.495 310.583 282.738 310.401 282.917C310.218 283.096 309.971 283.197 309.713 283.197ZM303.877 283.197H301.932C301.674 283.197 301.427 283.096 301.244 282.917C301.062 282.738 300.959 282.495 300.959 282.242C300.959 281.989 301.062 281.746 301.244 281.567C301.427 281.388 301.674 281.287 301.932 281.287H303.877C304.135 281.287 304.383 281.388 304.565 281.567C304.747 281.746 304.85 281.989 304.85 282.242C304.85 282.495 304.747 282.738 304.565 282.917C304.383 283.096 304.135 283.197 303.877 283.197ZM298.041 283.197H296.096C295.838 283.197 295.591 283.096 295.408 282.917C295.226 282.738 295.123 282.495 295.123 282.242C295.123 281.989 295.226 281.746 295.408 281.567C295.591 281.388 295.838 281.287 296.096 281.287H298.041C298.299 281.287 298.547 281.388 298.729 281.567C298.911 281.746 299.014 281.989 299.014 282.242C299.014 282.495 298.911 282.738 298.729 282.917C298.547 283.096 298.299 283.197 298.041 283.197ZM292.205 283.197H290.26C290.002 283.197 289.755 283.096 289.572 282.917C289.39 282.738 289.287 282.495 289.287 282.242C289.287 281.989 289.39 281.746 289.572 281.567C289.755 281.388 290.002 281.287 290.26 281.287H292.205C292.463 281.287 292.711 281.388 292.893 281.567C293.076 281.746 293.178 281.989 293.178 282.242C293.178 282.495 293.076 282.738 292.893 282.917C292.711 283.096 292.463 283.197 292.205 283.197ZM286.369 283.197H284.424C284.166 283.197 283.919 283.096 283.736 282.917C283.554 282.738 283.451 282.495 283.451 282.242C283.451 281.989 283.554 281.746 283.736 281.567C283.919 281.388 284.166 281.287 284.424 281.287H286.369C286.627 281.287 286.875 281.388 287.057 281.567C287.24 281.746 287.342 281.989 287.342 282.242C287.342 282.495 287.24 282.738 287.057 282.917C286.875 283.096 286.627 283.197 286.369 283.197ZM280.533 283.197H278.588C278.33 283.197 278.083 283.096 277.9 282.917C277.718 282.738 277.615 282.495 277.615 282.242C277.615 281.989 277.718 281.746 277.9 281.567C278.083 281.388 278.33 281.287 278.588 281.287H280.533C280.791 281.287 281.039 281.388 281.221 281.567C281.404 281.746 281.506 281.989 281.506 282.242C281.506 282.495 281.404 282.738 281.221 282.917C281.039 283.096 280.791 283.197 280.533 283.197ZM274.698 283.197H272.752C272.494 283.197 272.247 283.096 272.064 282.917C271.882 282.738 271.78 282.495 271.78 282.242C271.78 281.989 271.882 281.746 272.064 281.567C272.247 281.388 272.494 281.287 272.752 281.287H274.698C274.955 281.287 275.203 281.388 275.385 281.567C275.568 281.746 275.67 281.989 275.67 282.242C275.67 282.495 275.568 282.738 275.385 282.917C275.203 283.096 274.955 283.197 274.698 283.197ZM268.862 283.197H266.916C266.658 283.197 266.411 283.096 266.228 282.917C266.046 282.738 265.944 282.495 265.944 282.242C265.944 281.989 266.046 281.746 266.228 281.567C266.411 281.388 266.658 281.287 266.916 281.287H268.862C269.12 281.287 269.367 281.388 269.549 281.567C269.732 281.746 269.834 281.989 269.834 282.242C269.834 282.495 269.732 282.738 269.549 282.917C269.367 283.096 269.12 283.197 268.862 283.197ZM263.026 283.197H261.08C260.822 283.197 260.575 283.096 260.393 282.917C260.21 282.738 260.108 282.495 260.108 282.242C260.108 281.989 260.21 281.746 260.393 281.567C260.575 281.388 260.822 281.287 261.08 281.287H263.026C263.284 281.287 263.531 281.388 263.713 281.567C263.896 281.746 263.998 281.989 263.998 282.242C263.998 282.495 263.896 282.738 263.713 282.917C263.531 283.096 263.284 283.197 263.026 283.197ZM257.19 283.197H255.244C254.986 283.197 254.739 283.096 254.557 282.917C254.374 282.738 254.272 282.495 254.272 282.242C254.272 281.989 254.374 281.746 254.557 281.567C254.739 281.388 254.986 281.287 255.244 281.287H257.19C257.448 281.287 257.695 281.388 257.877 281.567C258.06 281.746 258.162 281.989 258.162 282.242C258.162 282.495 258.06 282.738 257.877 282.917C257.695 283.096 257.448 283.197 257.19 283.197ZM251.354 283.197H249.408C249.151 283.197 248.903 283.096 248.721 282.917C248.538 282.738 248.436 282.495 248.436 282.242C248.436 281.989 248.538 281.746 248.721 281.567C248.903 281.388 249.151 281.287 249.408 281.287H251.354C251.612 281.287 251.859 281.388 252.042 281.567C252.224 281.746 252.326 281.989 252.326 282.242C252.326 282.495 252.224 282.738 252.042 282.917C251.859 283.096 251.612 283.197 251.354 283.197ZM245.518 283.197H243.573C243.315 283.197 243.067 283.096 242.885 282.917C242.702 282.738 242.6 282.495 242.6 282.242C242.6 281.989 242.702 281.746 242.885 281.567C243.067 281.388 243.315 281.287 243.573 281.287H245.518C245.776 281.287 246.023 281.388 246.206 281.567C246.388 281.746 246.491 281.989 246.491 282.242C246.491 282.495 246.388 282.738 246.206 282.917C246.023 283.096 245.776 283.197 245.518 283.197ZM239.682 283.197H237.737C237.479 283.197 237.231 283.096 237.049 282.917C236.866 282.738 236.764 282.495 236.764 282.242C236.764 281.989 236.866 281.746 237.049 281.567C237.231 281.388 237.479 281.287 237.737 281.287H239.682C239.94 281.287 240.187 281.388 240.37 281.567C240.552 281.746 240.655 281.989 240.655 282.242C240.655 282.495 240.552 282.738 240.37 282.917C240.187 283.096 239.94 283.197 239.682 283.197ZM233.846 283.197H231.901C231.643 283.197 231.395 283.096 231.213 282.917C231.03 282.738 230.928 282.495 230.928 282.242C230.928 281.989 231.03 281.746 231.213 281.567C231.395 281.388 231.643 281.287 231.901 281.287H233.846C234.104 281.287 234.351 281.388 234.534 281.567C234.716 281.746 234.819 281.989 234.819 282.242C234.819 282.495 234.716 282.738 234.534 282.917C234.351 283.096 234.104 283.197 233.846 283.197ZM228.01 283.197H226.065C225.807 283.197 225.559 283.096 225.377 282.917C225.195 282.738 225.092 282.495 225.092 282.242C225.092 281.989 225.195 281.746 225.377 281.567C225.559 281.388 225.807 281.287 226.065 281.287H228.01C228.268 281.287 228.515 281.388 228.698 281.567C228.88 281.746 228.983 281.989 228.983 282.242C228.983 282.495 228.88 282.738 228.698 282.917C228.515 283.096 228.268 283.197 228.01 283.197ZM222.174 283.197H220.229C219.971 283.197 219.723 283.096 219.541 282.917C219.359 282.738 219.256 282.495 219.256 282.242C219.256 281.989 219.359 281.746 219.541 281.567C219.723 281.388 219.971 281.287 220.229 281.287H222.174C222.432 281.287 222.679 281.388 222.862 281.567C223.044 281.746 223.147 281.989 223.147 282.242C223.147 282.495 223.044 282.738 222.862 282.917C222.679 283.096 222.432 283.197 222.174 283.197ZM216.338 283.197H214.393C214.135 283.197 213.887 283.096 213.705 282.917C213.523 282.738 213.42 282.495 213.42 282.242C213.42 281.989 213.523 281.746 213.705 281.567C213.887 281.388 214.135 281.287 214.393 281.287H216.338C216.596 281.287 216.844 281.388 217.026 281.567C217.208 281.746 217.311 281.989 217.311 282.242C217.311 282.495 217.208 282.738 217.026 282.917C216.844 283.096 216.596 283.197 216.338 283.197ZM210.502 283.197H208.557C208.299 283.197 208.052 283.096 207.869 282.917C207.687 282.738 207.584 282.495 207.584 282.242C207.584 281.989 207.687 281.746 207.869 281.567C208.052 281.388 208.299 281.287 208.557 281.287H210.502C210.76 281.287 211.008 281.388 211.19 281.567C211.372 281.746 211.475 281.989 211.475 282.242C211.475 282.495 211.372 282.738 211.19 282.917C211.008 283.096 210.76 283.197 210.502 283.197ZM204.666 283.197H202.721C202.463 283.197 202.216 283.096 202.033 282.917C201.851 282.738 201.748 282.495 201.748 282.242C201.748 281.989 201.851 281.746 202.033 281.567C202.216 281.388 202.463 281.287 202.721 281.287H204.666C204.924 281.287 205.172 281.388 205.354 281.567C205.536 281.746 205.639 281.989 205.639 282.242C205.639 282.495 205.536 282.738 205.354 282.917C205.172 283.096 204.924 283.197 204.666 283.197ZM198.83 283.197H196.885C196.627 283.197 196.38 283.096 196.197 282.917C196.015 282.738 195.912 282.495 195.912 282.242C195.912 281.989 196.015 281.746 196.197 281.567C196.38 281.388 196.627 281.287 196.885 281.287H198.83C199.088 281.287 199.336 281.388 199.518 281.567C199.701 281.746 199.803 281.989 199.803 282.242C199.803 282.495 199.701 282.738 199.518 282.917C199.336 283.096 199.088 283.197 198.83 283.197ZM192.994 283.197H191.049C190.791 283.197 190.544 283.096 190.361 282.917C190.179 282.738 190.076 282.495 190.076 282.242C190.076 281.989 190.179 281.746 190.361 281.567C190.544 281.388 190.791 281.287 191.049 281.287H192.994C193.252 281.287 193.5 281.388 193.682 281.567C193.865 281.746 193.967 281.989 193.967 282.242C193.967 282.495 193.865 282.738 193.682 282.917C193.5 283.096 193.252 283.197 192.994 283.197ZM187.158 283.197H185.213C184.955 283.197 184.708 283.096 184.525 282.917C184.343 282.738 184.241 282.495 184.241 282.242C184.241 281.989 184.343 281.746 184.525 281.567C184.708 281.388 184.955 281.287 185.213 281.287H187.158C187.416 281.287 187.664 281.388 187.846 281.567C188.029 281.746 188.131 281.989 188.131 282.242C188.131 282.495 188.029 282.738 187.846 282.917C187.664 283.096 187.416 283.197 187.158 283.197ZM181.323 283.197H179.377C179.119 283.197 178.872 283.096 178.689 282.917C178.507 282.738 178.405 282.495 178.405 282.242C178.405 281.989 178.507 281.746 178.689 281.567C178.872 281.388 179.119 281.287 179.377 281.287H181.323C181.581 281.287 181.828 281.388 182.01 281.567C182.193 281.746 182.295 281.989 182.295 282.242C182.295 282.495 182.193 282.738 182.01 282.917C181.828 283.096 181.581 283.197 181.323 283.197ZM178.475 280.265C178.217 280.265 177.969 280.165 177.787 279.986C177.604 279.807 177.502 279.564 177.502 279.31V277.401C177.502 277.148 177.604 276.905 177.787 276.726C177.969 276.547 178.217 276.446 178.475 276.446C178.733 276.446 178.98 276.547 179.162 276.726C179.345 276.905 179.447 277.148 179.447 277.401V279.31C179.447 279.564 179.345 279.807 179.162 279.986C178.98 280.165 178.733 280.265 178.475 280.265ZM309.715 277.653C309.457 277.653 309.21 277.552 309.027 277.373C308.845 277.194 308.742 276.951 308.742 276.698V274.788C308.742 274.535 308.845 274.292 309.027 274.113C309.21 273.934 309.457 273.833 309.715 273.833C309.973 273.833 310.22 273.934 310.403 274.113C310.585 274.292 310.688 274.535 310.688 274.788V276.698C310.688 276.951 310.585 277.194 310.403 277.373C310.22 277.552 309.973 277.653 309.715 277.653ZM178.475 274.536C178.217 274.536 177.969 274.436 177.787 274.257C177.604 274.077 177.502 273.835 177.502 273.581V271.672C177.502 271.418 177.604 271.176 177.787 270.996C177.969 270.817 178.217 270.717 178.475 270.717C178.733 270.717 178.98 270.817 179.162 270.996C179.345 271.176 179.447 271.418 179.447 271.672V273.581C179.447 273.835 179.345 274.077 179.162 274.257C178.98 274.436 178.733 274.536 178.475 274.536ZM309.715 271.924C309.457 271.924 309.21 271.823 309.027 271.644C308.845 271.465 308.742 271.222 308.742 270.969V269.059C308.742 268.806 308.845 268.563 309.027 268.384C309.21 268.205 309.457 268.104 309.715 268.104C309.973 268.104 310.22 268.205 310.403 268.384C310.585 268.563 310.688 268.806 310.688 269.059V270.969C310.688 271.222 310.585 271.465 310.403 271.644C310.22 271.823 309.973 271.924 309.715 271.924ZM178.475 268.807C178.217 268.807 177.969 268.706 177.787 268.527C177.604 268.348 177.502 268.105 177.502 267.852V265.942C177.502 265.689 177.604 265.446 177.787 265.267C177.969 265.088 178.217 264.988 178.475 264.988C178.733 264.988 178.98 265.088 179.162 265.267C179.345 265.446 179.447 265.689 179.447 265.942V267.852C179.447 268.105 179.345 268.348 179.162 268.527C178.98 268.706 178.733 268.807 178.475 268.807ZM309.715 266.195C309.457 266.195 309.21 266.094 309.027 265.915C308.845 265.736 308.742 265.493 308.742 265.24V263.33C308.742 263.077 308.845 262.834 309.027 262.655C309.21 262.476 309.457 262.375 309.715 262.375C309.973 262.375 310.22 262.476 310.403 262.655C310.585 262.834 310.688 263.077 310.688 263.33V265.24C310.688 265.493 310.585 265.736 310.403 265.915C310.22 266.094 309.973 266.195 309.715 266.195ZM178.475 263.078C178.217 263.078 177.969 262.977 177.787 262.798C177.604 262.619 177.502 262.376 177.502 262.123V260.213C177.502 259.96 177.604 259.717 177.787 259.538C177.969 259.359 178.217 259.258 178.475 259.258C178.733 259.258 178.98 259.359 179.162 259.538C179.345 259.717 179.447 259.96 179.447 260.213V262.123C179.447 262.376 179.345 262.619 179.162 262.798C178.98 262.977 178.733 263.078 178.475 263.078ZM309.715 260.465C309.457 260.465 309.21 260.365 309.027 260.186C308.845 260.007 308.742 259.764 308.742 259.511V257.601C308.742 257.348 308.845 257.105 309.027 256.926C309.21 256.747 309.457 256.646 309.715 256.646C309.973 256.646 310.22 256.747 310.403 256.926C310.585 257.105 310.688 257.348 310.688 257.601V259.511C310.688 259.764 310.585 260.007 310.403 260.186C310.22 260.365 309.973 260.465 309.715 260.465ZM178.475 257.349C178.217 257.349 177.969 257.248 177.787 257.069C177.604 256.89 177.502 256.647 177.502 256.394V254.484C177.502 254.231 177.604 253.988 177.787 253.809C177.969 253.63 178.217 253.529 178.475 253.529C178.733 253.529 178.98 253.63 179.162 253.809C179.345 253.988 179.447 254.231 179.447 254.484V256.394C179.447 256.647 179.345 256.89 179.162 257.069C178.98 257.248 178.733 257.349 178.475 257.349ZM309.715 254.736C309.457 254.736 309.21 254.636 309.027 254.457C308.845 254.278 308.742 254.035 308.742 253.781V251.872C308.742 251.618 308.845 251.376 309.027 251.197C309.21 251.017 309.457 250.917 309.715 250.917C309.973 250.917 310.22 251.017 310.403 251.197C310.585 251.376 310.688 251.618 310.688 251.872V253.781C310.688 254.035 310.585 254.278 310.403 254.457C310.22 254.636 309.973 254.736 309.715 254.736ZM178.475 251.62C178.217 251.62 177.969 251.519 177.787 251.34C177.604 251.161 177.502 250.918 177.502 250.665V248.755C177.502 248.502 177.604 248.259 177.787 248.08C177.969 247.901 178.217 247.8 178.475 247.8C178.733 247.8 178.98 247.901 179.162 248.08C179.345 248.259 179.447 248.502 179.447 248.755V250.665C179.447 250.918 179.345 251.161 179.162 251.34C178.98 251.519 178.733 251.62 178.475 251.62ZM309.715 249.007C309.457 249.007 309.21 248.907 309.027 248.727C308.845 248.548 308.742 248.306 308.742 248.052V246.143C308.742 245.889 308.845 245.646 309.027 245.467C309.21 245.288 309.457 245.188 309.715 245.188C309.973 245.188 310.22 245.288 310.403 245.467C310.585 245.646 310.688 245.889 310.688 246.143V248.052C310.688 248.306 310.585 248.548 310.403 248.727C310.22 248.907 309.973 249.007 309.715 249.007ZM178.475 245.89C178.217 245.89 177.969 245.79 177.787 245.611C177.604 245.432 177.502 245.189 177.502 244.936V243.026C177.502 242.773 177.604 242.53 177.787 242.351C177.969 242.172 178.217 242.071 178.475 242.071C178.733 242.071 178.98 242.172 179.162 242.351C179.345 242.53 179.447 242.773 179.447 243.026V244.936C179.447 245.189 179.345 245.432 179.162 245.611C178.98 245.79 178.733 245.89 178.475 245.89ZM309.715 243.278C309.457 243.278 309.21 243.177 309.027 242.998C308.845 242.819 308.742 242.576 308.742 242.323V240.413C308.742 240.16 308.845 239.917 309.027 239.738C309.21 239.559 309.457 239.459 309.715 239.459C309.973 239.459 310.22 239.559 310.403 239.738C310.585 239.917 310.688 240.16 310.688 240.413V242.323C310.688 242.576 310.585 242.819 310.403 242.998C310.22 243.177 309.973 243.278 309.715 243.278ZM178.475 240.161C178.217 240.161 177.969 240.061 177.787 239.882C177.604 239.703 177.502 239.46 177.502 239.206V237.297C177.502 237.044 177.604 236.801 177.787 236.622C177.969 236.443 178.217 236.342 178.475 236.342C178.733 236.342 178.98 236.443 179.162 236.622C179.345 236.801 179.447 237.044 179.447 237.297V239.206C179.447 239.46 179.345 239.703 179.162 239.882C178.98 240.061 178.733 240.161 178.475 240.161ZM309.715 237.549C309.457 237.549 309.21 237.448 309.027 237.269C308.845 237.09 308.742 236.847 308.742 236.594V234.684C308.742 234.431 308.845 234.188 309.027 234.009C309.21 233.83 309.457 233.729 309.715 233.729C309.973 233.729 310.22 233.83 310.403 234.009C310.585 234.188 310.688 234.431 310.688 234.684V236.594C310.688 236.847 310.585 237.09 310.403 237.269C310.22 237.448 309.973 237.549 309.715 237.549ZM178.475 234.432C178.217 234.432 177.969 234.332 177.787 234.153C177.604 233.973 177.502 233.731 177.502 233.477V231.568C177.502 231.314 177.604 231.072 177.787 230.892C177.969 230.713 178.217 230.613 178.475 230.613C178.733 230.613 178.98 230.713 179.162 230.892C179.345 231.072 179.447 231.314 179.447 231.568V233.477C179.447 233.731 179.345 233.973 179.162 234.153C178.98 234.332 178.733 234.432 178.475 234.432ZM309.715 231.82C309.457 231.82 309.21 231.719 309.027 231.54C308.845 231.361 308.742 231.118 308.742 230.865V228.955C308.742 228.702 308.845 228.459 309.027 228.28C309.21 228.101 309.457 228 309.715 228C309.973 228 310.22 228.101 310.403 228.28C310.585 228.459 310.688 228.702 310.688 228.955V230.865C310.688 231.118 310.585 231.361 310.403 231.54C310.22 231.719 309.973 231.82 309.715 231.82ZM177.502 227.748V226.885C177.502 226.632 177.604 226.389 177.787 226.21C177.969 226.031 178.217 225.93 178.475 225.93H179.541C179.799 225.93 180.046 226.031 180.228 226.21C180.411 226.389 180.513 226.632 180.513 226.885C180.513 227.138 180.411 227.381 180.228 227.56C180.046 227.739 179.799 227.84 179.541 227.84H179.443C179.327 229.035 177.502 228.957 177.502 227.748ZM307.931 227.84H305.986C305.728 227.84 305.481 227.739 305.298 227.56C305.116 227.381 305.013 227.138 305.013 226.885C305.013 226.632 305.116 226.389 305.298 226.21C305.481 226.031 305.728 225.93 305.986 225.93H307.931C308.189 225.93 308.437 226.031 308.619 226.21C308.801 226.389 308.904 226.632 308.904 226.885C308.904 227.138 308.801 227.381 308.619 227.56C308.437 227.739 308.189 227.84 307.931 227.84ZM302.095 227.84H300.15C299.892 227.84 299.645 227.739 299.462 227.56C299.28 227.381 299.177 227.138 299.177 226.885C299.177 226.632 299.28 226.389 299.462 226.21C299.645 226.031 299.892 225.93 300.15 225.93H302.095C302.353 225.93 302.601 226.031 302.783 226.21C302.965 226.389 303.068 226.632 303.068 226.885C303.068 227.138 302.965 227.381 302.783 227.56C302.601 227.739 302.353 227.84 302.095 227.84ZM296.259 227.84H294.314C294.056 227.84 293.809 227.739 293.626 227.56C293.444 227.381 293.341 227.138 293.341 226.885C293.341 226.632 293.444 226.389 293.626 226.21C293.809 226.031 294.056 225.93 294.314 225.93H296.259C296.517 225.93 296.765 226.031 296.947 226.21C297.13 226.389 297.232 226.632 297.232 226.885C297.232 227.138 297.13 227.381 296.947 227.56C296.765 227.739 296.517 227.84 296.259 227.84ZM290.423 227.84H288.478C288.22 227.84 287.973 227.739 287.79 227.56C287.608 227.381 287.505 227.138 287.505 226.885C287.505 226.632 287.608 226.389 287.79 226.21C287.973 226.031 288.22 225.93 288.478 225.93H290.423C290.681 225.93 290.929 226.031 291.111 226.21C291.294 226.389 291.396 226.632 291.396 226.885C291.396 227.138 291.294 227.381 291.111 227.56C290.929 227.739 290.681 227.84 290.423 227.84ZM284.587 227.84H282.642C282.384 227.84 282.137 227.739 281.954 227.56C281.772 227.381 281.67 227.138 281.67 226.885C281.67 226.632 281.772 226.389 281.954 226.21C282.137 226.031 282.384 225.93 282.642 225.93H284.587C284.845 225.93 285.093 226.031 285.275 226.21C285.458 226.389 285.56 226.632 285.56 226.885C285.56 227.138 285.458 227.381 285.275 227.56C285.093 227.739 284.845 227.84 284.587 227.84ZM278.752 227.84H276.806C276.548 227.84 276.301 227.739 276.118 227.56C275.936 227.381 275.834 227.138 275.834 226.885C275.834 226.632 275.936 226.389 276.118 226.21C276.301 226.031 276.548 225.93 276.806 225.93H278.752C279.01 225.93 279.257 226.031 279.439 226.21C279.622 226.389 279.724 226.632 279.724 226.885C279.724 227.138 279.622 227.381 279.439 227.56C279.257 227.739 279.01 227.84 278.752 227.84ZM272.916 227.84H270.97C270.712 227.84 270.465 227.739 270.283 227.56C270.1 227.381 269.998 227.138 269.998 226.885C269.998 226.632 270.1 226.389 270.283 226.21C270.465 226.031 270.712 225.93 270.97 225.93H272.916C273.174 225.93 273.421 226.031 273.603 226.21C273.786 226.389 273.888 226.632 273.888 226.885C273.888 227.138 273.786 227.381 273.603 227.56C273.421 227.739 273.174 227.84 272.916 227.84ZM267.08 227.84H265.134C264.876 227.84 264.629 227.739 264.447 227.56C264.264 227.381 264.162 227.138 264.162 226.885C264.162 226.632 264.264 226.389 264.447 226.21C264.629 226.031 264.876 225.93 265.134 225.93H267.08C267.338 225.93 267.585 226.031 267.767 226.21C267.95 226.389 268.052 226.632 268.052 226.885C268.052 227.138 267.95 227.381 267.767 227.56C267.585 227.739 267.338 227.84 267.08 227.84ZM261.244 227.84H259.298C259.04 227.84 258.793 227.739 258.611 227.56C258.428 227.381 258.326 227.138 258.326 226.885C258.326 226.632 258.428 226.389 258.611 226.21C258.793 226.031 259.04 225.93 259.298 225.93H261.244C261.502 225.93 261.749 226.031 261.932 226.21C262.114 226.389 262.216 226.632 262.216 226.885C262.216 227.138 262.114 227.381 261.932 227.56C261.749 227.739 261.502 227.84 261.244 227.84ZM255.408 227.84H253.463C253.205 227.84 252.957 227.739 252.775 227.56C252.592 227.381 252.49 227.138 252.49 226.885C252.49 226.632 252.592 226.389 252.775 226.21C252.957 226.031 253.205 225.93 253.463 225.93H255.408C255.666 225.93 255.913 226.031 256.096 226.21C256.278 226.389 256.38 226.632 256.38 226.885C256.38 227.138 256.278 227.381 256.096 227.56C255.913 227.739 255.666 227.84 255.408 227.84ZM249.572 227.84H247.627C247.369 227.84 247.121 227.739 246.939 227.56C246.756 227.381 246.654 227.138 246.654 226.885C246.654 226.632 246.756 226.389 246.939 226.21C247.121 226.031 247.369 225.93 247.627 225.93H249.572C249.83 225.93 250.077 226.031 250.26 226.21C250.442 226.389 250.545 226.632 250.545 226.885C250.545 227.138 250.442 227.381 250.26 227.56C250.077 227.739 249.83 227.84 249.572 227.84ZM243.736 227.84H241.791C241.533 227.84 241.285 227.739 241.103 227.56C240.92 227.381 240.818 227.138 240.818 226.885C240.818 226.632 240.92 226.389 241.103 226.21C241.285 226.031 241.533 225.93 241.791 225.93H243.736C243.994 225.93 244.241 226.031 244.424 226.21C244.606 226.389 244.709 226.632 244.709 226.885C244.709 227.138 244.606 227.381 244.424 227.56C244.241 227.739 243.994 227.84 243.736 227.84ZM237.9 227.84H235.955C235.697 227.84 235.449 227.739 235.267 227.56C235.084 227.381 234.982 227.138 234.982 226.885C234.982 226.632 235.084 226.389 235.267 226.21C235.449 226.031 235.697 225.93 235.955 225.93H237.9C238.158 225.93 238.405 226.031 238.588 226.21C238.77 226.389 238.873 226.632 238.873 226.885C238.873 227.138 238.77 227.381 238.588 227.56C238.405 227.739 238.158 227.84 237.9 227.84ZM232.064 227.84H230.119C229.861 227.84 229.613 227.739 229.431 227.56C229.249 227.381 229.146 227.138 229.146 226.885C229.146 226.632 229.249 226.389 229.431 226.21C229.613 226.031 229.861 225.93 230.119 225.93H232.064C232.322 225.93 232.569 226.031 232.752 226.21C232.934 226.389 233.037 226.632 233.037 226.885C233.037 227.138 232.934 227.381 232.752 227.56C232.569 227.739 232.322 227.84 232.064 227.84ZM226.228 227.84H224.283C224.025 227.84 223.777 227.739 223.595 227.56C223.413 227.381 223.31 227.138 223.31 226.885C223.31 226.632 223.413 226.389 223.595 226.21C223.777 226.031 224.025 225.93 224.283 225.93H226.228C226.486 225.93 226.733 226.031 226.916 226.21C227.098 226.389 227.201 226.632 227.201 226.885C227.201 227.138 227.098 227.381 226.916 227.56C226.733 227.739 226.486 227.84 226.228 227.84ZM220.392 227.84H218.447C218.189 227.84 217.942 227.739 217.759 227.56C217.577 227.381 217.474 227.138 217.474 226.885C217.474 226.632 217.577 226.389 217.759 226.21C217.942 226.031 218.189 225.93 218.447 225.93H220.392C220.65 225.93 220.898 226.031 221.08 226.21C221.262 226.389 221.365 226.632 221.365 226.885C221.365 227.138 221.262 227.381 221.08 227.56C220.898 227.739 220.65 227.84 220.392 227.84ZM214.556 227.84H212.611C212.353 227.84 212.106 227.739 211.923 227.56C211.741 227.381 211.638 227.138 211.638 226.885C211.638 226.632 211.741 226.389 211.923 226.21C212.106 226.031 212.353 225.93 212.611 225.93H214.556C214.814 225.93 215.062 226.031 215.244 226.21C215.426 226.389 215.529 226.632 215.529 226.885C215.529 227.138 215.426 227.381 215.244 227.56C215.062 227.739 214.814 227.84 214.556 227.84ZM208.72 227.84H206.775C206.517 227.84 206.27 227.739 206.087 227.56C205.905 227.381 205.802 227.138 205.802 226.885C205.802 226.632 205.905 226.389 206.087 226.21C206.27 226.031 206.517 225.93 206.775 225.93H208.72C208.978 225.93 209.226 226.031 209.408 226.21C209.59 226.389 209.693 226.632 209.693 226.885C209.693 227.138 209.59 227.381 209.408 227.56C209.226 227.739 208.978 227.84 208.72 227.84ZM202.884 227.84H200.939C200.681 227.84 200.434 227.739 200.251 227.56C200.069 227.381 199.966 227.138 199.966 226.885C199.966 226.632 200.069 226.389 200.251 226.21C200.434 226.031 200.681 225.93 200.939 225.93H202.884C203.142 225.93 203.39 226.031 203.572 226.21C203.755 226.389 203.857 226.632 203.857 226.885C203.857 227.138 203.755 227.381 203.572 227.56C203.39 227.739 203.142 227.84 202.884 227.84ZM197.048 227.84H195.103C194.845 227.84 194.598 227.739 194.415 227.56C194.233 227.381 194.13 227.138 194.13 226.885C194.13 226.632 194.233 226.389 194.415 226.21C194.598 226.031 194.845 225.93 195.103 225.93H197.048C197.306 225.93 197.554 226.031 197.736 226.21C197.919 226.389 198.021 226.632 198.021 226.885C198.021 227.138 197.919 227.381 197.736 227.56C197.554 227.739 197.306 227.84 197.048 227.84ZM191.213 227.84H189.267C189.009 227.84 188.762 227.739 188.579 227.56C188.397 227.381 188.295 227.138 188.295 226.885C188.295 226.632 188.397 226.389 188.579 226.21C188.762 226.031 189.009 225.93 189.267 225.93H191.213C191.47 225.93 191.718 226.031 191.9 226.21C192.083 226.389 192.185 226.632 192.185 226.885C192.185 227.138 192.083 227.381 191.9 227.56C191.718 227.739 191.47 227.84 191.213 227.84ZM185.377 227.84H183.431C183.173 227.84 182.926 227.739 182.743 227.56C182.561 227.381 182.459 227.138 182.459 226.885C182.459 226.632 182.561 226.389 182.743 226.21C182.926 226.031 183.173 225.93 183.431 225.93H185.377C185.635 225.93 185.882 226.031 186.064 226.21C186.247 226.389 186.349 226.632 186.349 226.885C186.349 227.138 186.247 227.381 186.064 227.56C185.882 227.739 185.635 227.84 185.377 227.84ZM226.979 273.415H225.034C224.776 273.415 224.528 273.315 224.346 273.136C224.164 272.956 224.061 272.714 224.061 272.46C224.061 272.207 224.164 271.964 224.346 271.785C224.528 271.606 224.776 271.505 225.034 271.505H226.979C227.237 271.505 227.484 271.606 227.667 271.785C227.849 271.964 227.952 272.207 227.952 272.46C227.952 272.714 227.849 272.956 227.667 273.136C227.484 273.315 227.237 273.415 226.979 273.415ZM221.143 273.415H219.198C218.94 273.415 218.692 273.315 218.51 273.136C218.328 272.956 218.225 272.714 218.225 272.46C218.225 272.207 218.328 271.964 218.51 271.785C218.692 271.606 218.94 271.505 219.198 271.505H221.143C221.401 271.505 221.648 271.606 221.831 271.785C222.013 271.964 222.116 272.207 222.116 272.46C222.116 272.714 222.013 272.956 221.831 273.136C221.648 273.315 221.401 273.415 221.143 273.415ZM215.307 273.415H213.362C213.104 273.415 212.856 273.315 212.674 273.136C212.492 272.956 212.389 272.714 212.389 272.46C212.389 272.207 212.492 271.964 212.674 271.785C212.856 271.606 213.104 271.505 213.362 271.505H215.307C215.565 271.505 215.813 271.606 215.995 271.785C216.177 271.964 216.28 272.207 216.28 272.46C216.28 272.714 216.177 272.956 215.995 273.136C215.813 273.315 215.565 273.415 215.307 273.415ZM209.471 273.415H207.526C207.268 273.415 207.021 273.315 206.838 273.136C206.656 272.956 206.553 272.714 206.553 272.46C206.553 272.207 206.656 271.964 206.838 271.785C207.021 271.606 207.268 271.505 207.526 271.505H209.471C209.729 271.505 209.977 271.606 210.159 271.785C210.341 271.964 210.444 272.207 210.444 272.46C210.444 272.714 210.341 272.956 210.159 273.136C209.977 273.315 209.729 273.415 209.471 273.415ZM203.635 273.415H201.69C201.432 273.415 201.185 273.315 201.002 273.136C200.82 272.956 200.717 272.714 200.717 272.46C200.717 272.207 200.82 271.964 201.002 271.785C201.185 271.606 201.432 271.505 201.69 271.505H203.635C203.893 271.505 204.141 271.606 204.323 271.785C204.505 271.964 204.608 272.207 204.608 272.46C204.608 272.714 204.505 272.956 204.323 273.136C204.141 273.315 203.893 273.415 203.635 273.415ZM197.799 273.415H195.854C195.596 273.415 195.349 273.315 195.166 273.136C194.984 272.956 194.881 272.714 194.881 272.46C194.881 272.207 194.984 271.964 195.166 271.785C195.349 271.606 195.596 271.505 195.854 271.505H197.799C198.057 271.505 198.305 271.606 198.487 271.785C198.67 271.964 198.772 272.207 198.772 272.46C198.772 272.714 198.67 272.956 198.487 273.136C198.305 273.315 198.057 273.415 197.799 273.415ZM191.963 273.415H190.516C190.258 273.415 190.011 273.315 189.828 273.136C189.646 272.956 189.543 272.714 189.543 272.46V271.97C189.543 271.757 189.614 271.551 189.746 271.383C189.878 271.215 190.063 271.095 190.272 271.042C190.481 270.988 190.703 271.005 190.901 271.089C191.1 271.173 191.264 271.32 191.368 271.505H191.961C192.219 271.505 192.467 271.606 192.649 271.785C192.832 271.964 192.934 272.207 192.934 272.46C192.934 272.714 192.832 272.956 192.649 273.136C192.467 273.315 192.221 273.415 191.963 273.415ZM226.979 269.653C226.721 269.653 226.474 269.552 226.291 269.373C226.109 269.194 226.006 268.951 226.006 268.698V266.789C226.006 266.535 226.109 266.292 226.291 266.113C226.474 265.934 226.721 265.834 226.979 265.834C227.237 265.834 227.484 265.934 227.667 266.113C227.849 266.292 227.952 266.535 227.952 266.789V268.698C227.952 268.951 227.849 269.194 227.667 269.373C227.484 269.552 227.237 269.653 226.979 269.653ZM190.516 269.105C190.258 269.105 190.011 269.004 189.828 268.825C189.646 268.646 189.543 268.403 189.543 268.15V266.24C189.543 265.987 189.646 265.744 189.828 265.565C190.011 265.386 190.258 265.286 190.516 265.286C190.774 265.286 191.021 265.386 191.204 265.565C191.386 265.744 191.489 265.987 191.489 266.24V268.15C191.489 268.403 191.386 268.646 191.204 268.825C191.021 269.004 190.774 269.105 190.516 269.105ZM226.977 263.922C226.719 263.922 226.472 263.821 226.289 263.642C226.107 263.463 226.004 263.22 226.004 262.967V261.057C226.004 260.804 226.107 260.561 226.289 260.382C226.472 260.203 226.719 260.103 226.977 260.103C227.235 260.103 227.482 260.203 227.665 260.382C227.847 260.561 227.95 260.804 227.95 261.057V262.967C227.95 263.22 227.847 263.463 227.665 263.642C227.482 263.821 227.235 263.922 226.977 263.922ZM190.516 263.376C190.258 263.376 190.011 263.275 189.828 263.096C189.646 262.917 189.543 262.674 189.543 262.421V260.511C189.543 260.258 189.646 260.015 189.828 259.836C190.011 259.657 190.258 259.556 190.516 259.556C190.774 259.556 191.021 259.657 191.204 259.836C191.386 260.015 191.489 260.258 191.489 260.511V262.421C191.489 262.674 191.386 262.917 191.204 263.096C191.021 263.275 190.774 263.376 190.516 263.376ZM226.977 258.193C226.719 258.193 226.472 258.092 226.289 257.913C226.107 257.734 226.004 257.491 226.004 257.238V255.328C226.004 255.075 226.107 254.832 226.289 254.653C226.472 254.474 226.719 254.373 226.977 254.373C227.235 254.373 227.482 254.474 227.665 254.653C227.847 254.832 227.95 255.075 227.95 255.328V257.238C227.95 257.491 227.847 257.734 227.665 257.913C227.482 258.092 227.235 258.193 226.977 258.193ZM190.516 257.647C190.258 257.647 190.011 257.546 189.828 257.367C189.646 257.188 189.543 256.945 189.543 256.692V254.782C189.543 254.529 189.646 254.286 189.828 254.107C190.011 253.928 190.258 253.827 190.516 253.827C190.774 253.827 191.021 253.928 191.204 254.107C191.386 254.286 191.489 254.529 191.489 254.782V256.692C191.489 256.945 191.386 257.188 191.204 257.367C191.021 257.546 190.774 257.647 190.516 257.647ZM226.977 252.464C226.719 252.464 226.472 252.363 226.289 252.184C226.107 252.005 226.004 251.762 226.004 251.509V249.599C226.004 249.346 226.107 249.103 226.289 248.924C226.472 248.745 226.719 248.644 226.977 248.644C227.235 248.644 227.482 248.745 227.665 248.924C227.847 249.103 227.95 249.346 227.95 249.599V251.509C227.95 251.762 227.847 252.005 227.665 252.184C227.482 252.363 227.235 252.464 226.977 252.464ZM190.516 251.918C190.258 251.918 190.011 251.817 189.828 251.638C189.646 251.459 189.543 251.216 189.543 250.963V249.053C189.543 248.8 189.646 248.557 189.828 248.378C190.011 248.199 190.258 248.098 190.516 248.098C190.774 248.098 191.021 248.199 191.204 248.378C191.386 248.557 191.489 248.8 191.489 249.053V250.963C191.489 251.216 191.386 251.459 191.204 251.638C191.021 251.817 190.774 251.918 190.516 251.918ZM226.977 246.735C226.719 246.735 226.472 246.634 226.289 246.455C226.107 246.276 226.004 246.033 226.004 245.78V243.87C226.004 243.617 226.107 243.374 226.289 243.195C226.472 243.016 226.719 242.915 226.977 242.915C227.235 242.915 227.482 243.016 227.665 243.195C227.847 243.374 227.95 243.617 227.95 243.87V245.78C227.95 246.033 227.847 246.276 227.665 246.455C227.482 246.634 227.235 246.735 226.977 246.735ZM190.516 246.188C190.258 246.188 190.011 246.088 189.828 245.909C189.646 245.73 189.543 245.487 189.543 245.234V243.324C189.543 243.071 189.646 242.828 189.828 242.649C190.011 242.47 190.258 242.369 190.516 242.369C190.774 242.369 191.021 242.47 191.204 242.649C191.386 242.828 191.489 243.071 191.489 243.324V245.234C191.489 245.487 191.386 245.73 191.204 245.909C191.021 246.088 190.774 246.188 190.516 246.188ZM226.977 241.005C226.719 241.005 226.472 240.905 226.289 240.726C226.107 240.547 226.004 240.304 226.004 240.051V238.141C226.004 237.888 226.107 237.645 226.289 237.466C226.472 237.287 226.719 237.186 226.977 237.186C227.235 237.186 227.482 237.287 227.665 237.466C227.847 237.645 227.95 237.888 227.95 238.141V240.051C227.95 240.304 227.847 240.547 227.665 240.726C227.482 240.905 227.235 241.005 226.977 241.005ZM190.516 240.459C190.258 240.459 190.011 240.359 189.828 240.18C189.646 240.001 189.543 239.758 189.543 239.504V237.595C189.543 237.341 189.646 237.099 189.828 236.92C190.011 236.74 190.258 236.64 190.516 236.64C190.774 236.64 191.021 236.74 191.204 236.92C191.386 237.099 191.489 237.341 191.489 237.595V239.504C191.489 239.758 191.386 240.001 191.204 240.18C191.021 240.359 190.774 240.459 190.516 240.459ZM224.588 237.621H222.643C222.385 237.621 222.138 237.521 221.955 237.342C221.773 237.163 221.67 236.92 221.67 236.667C221.67 236.413 221.773 236.17 221.955 235.991C222.138 235.812 222.385 235.712 222.643 235.712H224.588C224.846 235.712 225.094 235.812 225.276 235.991C225.458 236.17 225.561 236.413 225.561 236.667C225.561 236.92 225.458 237.163 225.276 237.342C225.094 237.521 224.846 237.621 224.588 237.621ZM218.752 237.621H216.807C216.549 237.621 216.302 237.521 216.119 237.342C215.937 237.163 215.834 236.92 215.834 236.667C215.834 236.413 215.937 236.17 216.119 235.991C216.302 235.812 216.549 235.712 216.807 235.712H218.752C219.01 235.712 219.258 235.812 219.44 235.991C219.622 236.17 219.725 236.413 219.725 236.667C219.725 236.92 219.622 237.163 219.44 237.342C219.258 237.521 219.01 237.621 218.752 237.621ZM212.916 237.621H210.971C210.713 237.621 210.466 237.521 210.283 237.342C210.101 237.163 209.998 236.92 209.998 236.667C209.998 236.413 210.101 236.17 210.283 235.991C210.466 235.812 210.713 235.712 210.971 235.712H212.916C213.174 235.712 213.422 235.812 213.604 235.991C213.787 236.17 213.889 236.413 213.889 236.667C213.889 236.92 213.787 237.163 213.604 237.342C213.422 237.521 213.174 237.621 212.916 237.621ZM207.08 237.621H205.135C204.877 237.621 204.63 237.521 204.447 237.342C204.265 237.163 204.162 236.92 204.162 236.667C204.162 236.413 204.265 236.17 204.447 235.991C204.63 235.812 204.877 235.712 205.135 235.712H207.08C207.338 235.712 207.586 235.812 207.768 235.991C207.951 236.17 208.053 236.413 208.053 236.667C208.053 236.92 207.951 237.163 207.768 237.342C207.586 237.521 207.338 237.621 207.08 237.621ZM201.244 237.621H199.299C199.041 237.621 198.794 237.521 198.611 237.342C198.429 237.163 198.327 236.92 198.327 236.667C198.327 236.413 198.429 236.17 198.611 235.991C198.794 235.812 199.041 235.712 199.299 235.712H201.244C201.502 235.712 201.75 235.812 201.932 235.991C202.115 236.17 202.217 236.413 202.217 236.667C202.217 236.92 202.115 237.163 201.932 237.342C201.75 237.521 201.502 237.621 201.244 237.621ZM195.409 237.621H193.463C193.205 237.621 192.958 237.521 192.775 237.342C192.593 237.163 192.491 236.92 192.491 236.667C192.491 236.413 192.593 236.17 192.775 235.991C192.958 235.812 193.205 235.712 193.463 235.712H195.409C195.667 235.712 195.914 235.812 196.096 235.991C196.279 236.17 196.381 236.413 196.381 236.667C196.381 236.92 196.279 237.163 196.096 237.342C195.914 237.521 195.667 237.621 195.409 237.621Z" fill="#BBCAEA"/>
<path d="M200.113 246.086H217.382V263.038H200.113V246.086Z" fill="#FE4C40"/>
<path d="M297.672 247H238.387C238.129 247 237.881 246.9 237.699 246.721C237.517 246.542 237.414 246.299 237.414 246.045C237.414 245.792 237.517 245.549 237.699 245.37C237.881 245.191 238.129 245.091 238.387 245.091H297.672C297.93 245.091 298.177 245.191 298.36 245.37C298.542 245.549 298.645 245.792 298.645 246.045C298.645 246.299 298.542 246.542 298.36 246.721C298.177 246.9 297.93 247 297.672 247ZM297.672 255.518H238.387C238.129 255.518 237.881 255.417 237.699 255.238C237.517 255.059 237.414 254.816 237.414 254.563C237.414 254.31 237.517 254.067 237.699 253.888C237.881 253.708 238.129 253.608 238.387 253.608H297.672C297.93 253.608 298.177 253.708 298.36 253.888C298.542 254.067 298.645 254.31 298.645 254.563C298.645 254.816 298.542 255.059 298.36 255.238C298.177 255.417 297.93 255.518 297.672 255.518ZM273.813 264.033H238.389C238.131 264.033 237.883 263.932 237.701 263.753C237.518 263.574 237.416 263.331 237.416 263.078C237.416 262.825 237.518 262.582 237.701 262.403C237.883 262.224 238.131 262.123 238.389 262.123H273.813C274.071 262.123 274.318 262.224 274.501 262.403C274.683 262.582 274.785 262.825 274.785 263.078C274.785 263.331 274.683 263.574 274.501 263.753C274.318 263.932 274.071 264.033 273.813 264.033Z" fill="#D1DCF8"/>
<path d="M177.383 154.471H310.806V210.806H177.383V154.471Z" fill="white"/>
<path d="M310.806 211.759H177.383C177.125 211.759 176.877 211.658 176.695 211.479C176.513 211.3 176.41 211.057 176.41 210.804V154.467C176.41 154.214 176.513 153.971 176.695 153.792C176.877 153.613 177.125 153.512 177.383 153.512H310.806C311.064 153.512 311.311 153.613 311.494 153.792C311.676 153.971 311.779 154.214 311.779 154.467V210.802C311.779 211.055 311.676 211.298 311.494 211.477C311.311 211.656 311.064 211.757 310.806 211.757V211.759ZM178.355 209.849H309.833V155.422H178.355V209.847V209.849Z" fill="#D1DCF8"/>
<path d="M188.695 165.436V199.835H223.734V165.436H188.695Z" fill="#FEBF06"/>
<path d="M298.46 178.027H238.389C238.131 178.027 237.883 177.927 237.701 177.747C237.518 177.568 237.416 177.326 237.416 177.072C237.416 176.819 237.518 176.576 237.701 176.397C237.883 176.218 238.131 176.117 238.389 176.117H298.46C298.718 176.117 298.965 176.218 299.148 176.397C299.33 176.576 299.433 176.819 299.433 177.072C299.433 177.326 299.33 177.568 299.148 177.747C298.965 177.927 298.718 178.027 298.46 178.027ZM298.46 184.921H238.389C238.131 184.921 237.883 184.821 237.701 184.642C237.518 184.462 237.416 184.22 237.416 183.966C237.416 183.713 237.518 183.47 237.701 183.291C237.883 183.112 238.131 183.011 238.389 183.011H298.46C298.718 183.011 298.965 183.112 299.148 183.291C299.33 183.47 299.433 183.713 299.433 183.966C299.433 184.22 299.33 184.462 299.148 184.642C298.965 184.821 298.718 184.921 298.46 184.921ZM269.333 191.815H238.387C238.129 191.815 237.881 191.715 237.699 191.536C237.517 191.357 237.414 191.114 237.414 190.86C237.414 190.607 237.517 190.364 237.699 190.185C237.881 190.006 238.129 189.906 238.387 189.906H269.333C269.591 189.906 269.838 190.006 270.021 190.185C270.203 190.364 270.305 190.607 270.305 190.86C270.305 191.114 270.203 191.357 270.021 191.536C269.838 191.715 269.591 191.815 269.333 191.815Z" fill="#D1DCF8"/>
<path d="M200.582 174.749L213.874 182.773L200.613 190.527L200.582 174.749Z" fill="white"/>
<path d="M387.885 102.115L386.627 114.514L386.051 123.137C402.625 128.749 411.748 125.705 410.416 110.506L405.284 96.2919L393.019 81.2319L389.823 89.2394L387.885 102.115Z" fill="#F4A998"/>
<path d="M441.992 143.028L419.395 151.66L423.198 162.089L414.552 168.429C416.625 173.014 418.679 177.609 420.771 182.188C433.606 180.238 443.469 176.593 447.577 170.197C452.777 162.075 441.994 143.026 441.994 143.026L441.992 143.028ZM302.881 140.079C305.694 144.58 316.663 143.568 316.663 143.568C316.663 143.568 341.914 174.336 358.295 171.503C369.553 169.555 379.915 144.775 379.915 144.775L362.561 141.739C361.653 142.608 350.636 155.271 350.636 155.271L319.305 134.096C319.305 134.096 314.01 122.002 312.294 124.461C310.625 126.812 313.236 130.588 313.448 130.905C312.792 130.515 298.21 121.954 297.891 125.013C297.547 128.126 305.923 131.665 305.923 131.665C305.923 131.665 300.072 135.595 302.881 140.079Z" fill="#F2C3B3"/>
<path d="M426.506 118.122L410.414 110.506C410.058 112.251 401.552 118.442 386.623 114.516L375.091 121.616L366.723 132.731L367.415 223.339C388.64 229.878 409.866 229.878 431.091 223.339L434.795 132.729L426.506 118.122Z" fill="#FEBF06"/>
<path d="M375.09 121.618C375.09 121.618 362.856 127.443 355.734 146.895C357.878 153.407 364.298 159.188 372.19 161.6C372.19 161.6 386.443 138.792 375.09 121.618ZM426.505 118.123C426.505 118.123 438.741 123.95 445.863 143.4C443.719 149.914 437.297 155.693 429.405 158.107C429.405 158.107 415.152 135.299 426.505 118.123Z" fill="#FEBF06"/>
<path d="M374.382 92.7364C374.468 92.1998 376.11 88.0424 375.985 86.167C375.409 78.0431 374.016 68.8555 377.485 65.735C381.798 61.843 399.807 69.6862 399.807 69.6862L404.733 93.7219C404.733 93.7219 391.516 111.704 384.385 107.705C380.977 105.786 378.539 98.1046 377.812 94.6271C377.607 94.5125 373.97 95.305 374.382 92.7364Z" fill="#F2C3B3"/>
<path d="M387.456 61.3504C383.593 60.8062 380.268 60.4834 377.418 60.3497C372.998 60.1397 369.219 63.7719 369.219 68.2082C369.219 75.0698 373.31 75.6886 379.642 78.091C383.077 79.3953 387.775 80.6462 387.775 80.6462L389.324 88.2277L391.129 88.6192C391.985 85.5274 391.168 79.9625 394.442 80.9498C398.424 82.1529 394.615 87.0609 396.12 92.9562C396.399 94.0485 396.727 96.5904 397.161 99.1628C397.698 102.356 400.258 104.705 403.316 104.917C404.003 104.964 404.688 104.974 405.368 104.942C408.092 104.808 410.407 102.772 411.204 100.014C413.689 91.4284 415.55 77.9382 415.568 73.3568C415.626 58.5202 394.305 62.3187 387.456 61.3504ZM378.669 97.7438C378.871 98.4199 379.072 99.0997 379.295 99.7242C379.295 99.7242 382.186 98.7541 382.538 95.6794C382.538 95.6794 380.704 97.4994 378.667 97.7438H378.669Z" fill="#20154F"/>
<path d="M379.835 83.6427C379.861 82.7676 379.377 82.0436 378.754 82.0256C378.132 82.0075 377.605 82.7022 377.579 83.5772C377.553 84.4523 378.036 85.1763 378.659 85.1943C379.282 85.2124 379.808 84.5177 379.835 83.6427Z" fill="#20154F"/>
<path d="M380.315 80.9731C379.968 80.6617 379.531 80.464 379.065 80.4072C378.599 80.3503 378.126 80.4373 377.712 80.6559C377.656 80.6858 377.594 80.7045 377.531 80.711C377.467 80.7174 377.403 80.7115 377.342 80.6936C377.281 80.6757 377.223 80.6461 377.174 80.6065C377.124 80.567 377.083 80.5182 377.053 80.463C377.022 80.4078 377.003 80.3473 376.997 80.2848C376.99 80.2224 376.996 80.1593 377.014 80.0992C377.033 80.0391 377.063 79.9831 377.103 79.9343C377.143 79.8856 377.193 79.8452 377.249 79.8154C377.838 79.5019 378.511 79.3761 379.176 79.4556C379.841 79.535 380.464 79.8156 380.959 80.2586C381.01 80.2991 381.053 80.3494 381.084 80.4064C381.114 80.4635 381.133 80.5261 381.139 80.5905C381.144 80.6549 381.137 80.7197 381.116 80.7811C381.095 80.8424 381.062 80.899 381.018 80.9474C380.975 80.9958 380.922 81.035 380.862 81.0626C380.803 81.0902 380.738 81.1057 380.672 81.1081C380.607 81.1105 380.541 81.0998 380.48 81.0766C380.418 81.0534 380.362 81.0182 380.315 80.9731Z" fill="#20154F"/>
<path d="M411.314 340.067V358.27C411.314 361.881 420.817 361.881 420.817 358.27L423.881 340.067H411.314ZM368.365 338.955L371.186 356.947C371.744 360.518 381.134 359.097 380.576 355.528L380.784 337.08L368.363 338.955H368.365Z" fill="#F2C3B3"/>
<path d="M369.106 222.37C368.596 249.677 366.832 348.216 366.832 348.216C371.555 350.624 376.928 351.283 383.284 349.304L398.208 265.216L407.995 348.019C414.868 351.323 420.799 351.262 425.816 347.931L429.282 222.37H369.106Z" fill="#022E4F"/>
<path d="M404.834 222.37H369.106C368.596 249.677 366.832 348.216 366.832 348.216C371.555 350.624 376.928 351.283 383.284 349.304L398.208 265.216C402.851 247.736 404.746 238.192 404.834 222.37Z" fill="#1C587E"/>
<path d="M382.987 351.663C382.283 351.098 381.448 350.758 380.905 351.472C379.009 353.974 373.694 357.868 371.366 352.593C370.959 351.671 369.5 351.881 368.973 352.742C367.339 355.416 362.565 359.462 359.581 360.498C359.581 360.498 352.65 362.762 349.839 361.834C347.03 360.91 343.583 370.462 373.354 368.352C384.146 367.588 386.697 365.205 386.784 361.941C386.813 360.885 383.592 352.148 382.987 351.663Z" fill="#20154F"/>
<path d="M373.139 366.085C356.102 367.294 349.945 364.681 348.32 362.399C347.015 364.343 349.7 370.028 373.353 368.352C383.828 367.609 388.491 365.894 386.783 361.941C385.98 364.324 381.344 365.504 373.139 366.085Z" fill="#FEBF06"/>
<path d="M423.719 351.663C423.014 351.098 422.18 350.758 421.637 351.472C419.74 353.974 414.426 357.868 412.097 352.593C411.691 351.671 410.232 351.881 409.704 352.742C408.07 355.416 403.297 359.462 400.313 360.498C400.313 360.498 393.381 362.762 390.57 361.834C387.759 360.91 384.312 370.462 414.085 368.352C424.878 367.588 427.428 365.205 427.516 361.941C427.545 360.885 424.324 352.148 423.719 351.663Z" fill="#20154F"/>
<path d="M413.868 366.085C396.833 367.294 390.676 364.681 389.05 362.399C387.747 364.343 390.431 370.028 414.086 368.352C424.558 367.609 429.223 365.894 427.515 361.941C426.711 364.324 422.076 365.504 413.868 366.085Z" fill="#FEBF06"/>
<path d="M368.662 220.385H429.8C431.109 220.385 432.171 221.428 432.171 222.713V226.595C432.171 227.213 431.921 227.806 431.476 228.243C431.031 228.68 430.427 228.925 429.798 228.925H368.662C367.353 228.925 366.291 227.881 366.291 226.595V222.713C366.291 221.428 367.353 220.383 368.664 220.383L368.662 220.385Z" fill="#20154F"/>
<path d="M160.587 56.9387V92.1996C160.587 93.4594 160.077 94.6677 159.17 95.5587C158.262 96.4497 157.032 96.9505 155.749 96.951H115.006C113.723 96.9505 112.492 96.4497 111.585 95.5587C110.678 94.6677 110.168 93.4594 110.168 92.1996V56.9406C110.167 56.3166 110.292 55.6985 110.535 55.1219C110.777 54.5452 111.134 54.0212 111.583 53.5799C112.033 53.1385 112.566 52.7885 113.153 52.5499C113.741 52.3113 114.37 52.1887 115.006 52.1892H155.749C156.384 52.1887 157.014 52.3113 157.601 52.5499C158.188 52.7885 158.722 53.1385 159.171 53.5799C159.621 54.0212 159.977 54.5452 160.22 55.1219C160.463 55.6985 160.587 56.3147 160.587 56.9387Z" fill="#6950E8"/>
<path d="M135.376 72.9645C139.048 72.9645 142.025 70.0421 142.025 66.4371C142.025 62.8321 139.048 59.9097 135.376 59.9097C131.703 59.9097 128.727 62.8321 128.727 66.4371C128.727 70.0421 131.703 72.9645 135.376 72.9645Z" fill="white"/>
<path d="M147.236 84.8389C146.581 82.2376 145.056 79.9268 142.907 78.2751C140.757 76.6235 138.106 75.7261 135.376 75.7261C132.646 75.7261 129.995 76.6235 127.845 78.2751C125.696 79.9268 124.171 82.2376 123.515 84.8389C123.429 85.179 123.422 85.534 123.496 85.8769C123.57 86.2199 123.722 86.5418 123.942 86.8185C124.161 87.0952 124.441 87.3193 124.762 87.4739C125.082 87.6286 125.434 87.7097 125.791 87.7111H144.96C146.487 87.7111 147.602 86.2941 147.236 84.8389Z" fill="white"/>
<path d="M17.0938 368.294L35.617 274.521L46.4407 276.532L28.3104 368.294H17.0938ZM113.675 362.842L96.229 274.521L85.4053 276.532L102.458 362.842H113.675Z" fill="#20154F"/>
<path d="M125.906 277.263H106.584C92.6551 277.263 81.3664 266.177 81.3664 252.506V184.724C81.3664 182.696 79.6915 181.052 77.6256 181.052H7.26562V252.506C7.26562 274.292 25.2559 291.951 47.448 291.951H125.906V277.261V277.263Z" fill="#38297A"/>
<path d="M3.74084 181.052H11.2225C13.2884 181.052 14.9633 182.696 14.9633 184.724V252.506C14.9633 266.179 26.2539 277.263 40.1804 277.263H102.218C104.284 277.263 105.959 278.906 105.959 280.936V288.279C105.959 290.307 104.286 291.951 102.218 291.951H40.1824C17.9902 291.951 0 274.292 0 252.506V184.724C0 182.696 1.67297 181.052 3.74084 181.052Z" fill="#20154F"/>
<path d="M116.285 344.997L112.321 358.644C111.533 361.35 104.411 359.356 105.197 356.648L106.866 342.359L116.285 344.997Z" fill="#F4A998"/>
<path d="M103.718 353.424C104.318 353.056 104.996 352.872 105.347 353.478C106.564 355.592 110.288 359.111 112.612 355.254C113.019 354.582 114.126 354.883 114.447 355.598C115.447 357.822 118.738 361.409 120.944 362.495C120.944 362.495 126.08 364.909 128.344 364.462C130.61 364.014 132.328 371.731 109.513 367.253C101.242 365.629 99.5049 363.544 99.7597 361.012C99.8434 360.19 103.203 353.743 103.718 353.424Z" fill="#20154F"/>
<path d="M109.902 365.522C122.959 368.084 127.98 366.654 129.462 365.044C130.28 366.671 127.64 370.811 109.511 367.254C101.485 365.678 98.0476 363.908 99.7595 361.013C100.147 362.934 103.615 364.288 109.902 365.522Z" fill="#FEBF06"/>
<path d="M71.4652 252.146L52.1035 232.066L135.466 248.944C144.912 250.561 150.488 260.263 147.011 269.036L117.04 351.467C112.729 352.267 106.967 351.877 102.971 349.223L114.365 279.831L89.8153 277.647C77.0035 276.509 68.2768 264.38 71.4652 252.146Z" fill="#022E4F"/>
<path d="M81.6273 344.997L77.6608 358.644C76.8749 361.35 69.7531 359.356 70.539 356.648L72.208 342.359L81.6273 344.997Z" fill="#F4A998"/>
<path d="M69.0583 353.424C69.6574 353.056 70.3383 352.872 70.6865 353.478C71.9062 355.592 75.6296 359.111 77.9542 355.254C78.3588 354.582 79.4676 354.883 79.7886 355.598C80.7885 357.822 84.078 361.409 86.284 362.495C86.284 362.495 91.4197 364.909 93.6859 364.462C95.9503 364.014 97.6699 371.731 74.8534 367.253C66.5819 365.629 64.8467 363.544 65.1015 361.012C65.1832 360.19 68.5428 353.743 69.0583 353.424Z" fill="#20154F"/>
<path d="M75.245 365.522C88.3 368.084 93.3208 366.654 94.8051 365.044C95.6221 366.671 92.9804 370.811 74.854 367.254C66.8257 365.678 63.3883 363.908 65.1021 361.013C65.4873 362.934 68.9558 364.288 75.245 365.522Z" fill="#FEBF06"/>
<path d="M36.8065 252.147L40.3411 238.588L100.807 248.944C110.254 250.562 115.829 260.263 112.355 269.036L82.3812 351.467C78.0704 352.267 72.3104 351.878 68.3147 349.223L79.7064 279.832L55.1566 277.647C42.3448 276.509 33.6181 264.38 36.8065 252.147Z" fill="#1C587E"/>
<path d="M116.277 169.1L121.697 176.651L126.558 184.026L147.873 152.877C147.873 152.877 147.624 144.703 150.153 145.205C152.662 145.709 151.903 149.666 151.903 149.666C151.903 149.666 164.614 139.212 167.567 149.082C169.217 154.601 154.942 159.436 154.942 159.436C154.942 159.436 141.189 195.009 130.231 197.543C123.85 199.017 118.6 196.431 114.728 193.082C114.728 193.082 114.711 193.082 114.693 193.065C112.254 190.964 103.053 175.591 103.053 175.591C103.053 175.591 112.159 177.794 116.277 169.1Z" fill="#F2C3B3"/>
<path d="M73.5726 152.981C61.2315 154.167 58.582 136.59 58.582 136.59C58.582 136.59 59.2298 133.509 59.3991 130.215C59.5858 127.064 59.3349 124.423 59.3349 124.423L78.0157 130.645C78.0157 131.178 78.0352 131.668 78.0993 132.119C78.3172 134.296 79.3813 135.614 80.0777 136.588C80.9084 137.753 81.3714 138.362 81.3714 138.362C81.3714 138.362 85.9156 151.793 73.5726 152.981Z" fill="#F4A998"/>
<path d="M81.3719 138.362C81.3719 138.362 80.9069 137.753 80.0763 136.59C79.3799 135.612 78.3158 134.294 78.0979 132.119C78.0365 131.63 78.0086 131.137 78.0142 130.645L67.1769 127.035V134.092L59.1895 139.324C60.5162 144.215 64.3212 153.871 73.5731 152.981C85.9161 151.793 81.3699 138.362 81.3699 138.362H81.3719Z" fill="#F4A998"/>
<path d="M67.1784 127.035L59.3349 124.423C59.3349 124.423 59.5858 127.064 59.3971 130.215C59.2298 133.511 58.582 136.59 58.582 136.59C58.582 136.59 58.7493 137.692 59.1909 139.324L67.1784 134.092V127.035Z" fill="#F4A998"/>
<path d="M52.3206 107.007C53.3065 107.055 54.2779 106.759 55.0635 106.173H55.0673C55.9272 105.529 56.5108 104.574 56.6625 103.524C57.6955 96.4083 62.372 96.2384 67.8364 94.3496C75.2772 91.7754 83.5506 93.0281 86.206 97.0939C91.5128 105.222 89.6239 132.45 75.3628 135.028C59.4988 137.897 52.3925 113.093 50.8421 109.893C50.5748 109.342 50.4365 108.74 50.4375 108.13V106.914L52.3206 107.007Z" fill="#F2C3B3"/>
<path d="M48.2488 98.6194C48.2488 98.6194 50.2408 93.0086 56.3608 95.1819C56.3608 95.1819 58.0338 81.4262 75.5494 87.4857C77.2418 88.072 78.8622 88.855 80.4418 89.7087C82.1576 90.6349 89.2093 94.0036 93.3412 94.3512C94.7593 94.4715 95.9226 95.7033 95.9226 97.1776C95.9226 97.1776 95.623 98.7149 95.1017 99.263C90.3668 104.24 76.9286 108.498 60.267 104.075C60.267 104.075 60.3526 109.186 58.8294 112.822C57.5066 110.937 54.3591 107.2 52.9546 110.631C51.6298 113.878 55.1936 116.359 56.497 117.081C56.497 119.821 58.2011 125.311 58.2575 125.541C57.6155 125.178 42.1172 110.244 48.2488 98.6194Z" fill="#20154F"/>
<path d="M37.7012 240.967L28.4609 161.019L29.2313 159.128C31.9314 152.49 37.2946 147.017 44.749 144.769L59.761 140.243C62.004 145.772 64.8091 150.26 69.3417 151.547C73.8859 149.026 76.7591 144.964 78.9204 140.241L102.225 147.279L110.518 158.292L100.955 240.967C100.955 248.064 37.7012 248.064 37.7012 240.967Z" fill="#FE4C40"/>
<path d="M82.037 194.942C82.037 194.942 82.8793 191.033 81.3658 190.4C78.5976 189.243 79.9613 194.119 76.6504 196.557" fill="#F2C3B3"/>
<path d="M69.3301 151.534L80.6207 156.327L87.474 142.824L80.076 136.589C76.8662 142.696 73.281 147.661 69.3301 151.534Z" fill="#EA241F"/>
<path d="M69.3312 151.534L58.0368 156.327L51.1406 142.841L58.5814 136.589C61.6161 142.356 65.1741 147.378 69.3312 151.534Z" fill="#EA241F"/>
<path d="M81.3384 203.365L85.2699 203.422C85.2699 203.422 82.7449 198.669 80.323 198.74C77.9769 198.808 80.926 203.031 81.3384 203.365Z" fill="#F2C3B3"/>
<path d="M84.1805 116.907C84.8724 116.907 85.4333 115.992 85.4333 114.863C85.4333 113.735 84.8724 112.82 84.1805 112.82C83.4886 112.82 82.9277 113.735 82.9277 114.863C82.9277 115.992 83.4886 116.907 84.1805 116.907Z" fill="#20154F"/>
<path d="M71.8993 117.082C72.5912 117.082 73.152 116.167 73.152 115.039C73.152 113.91 72.5912 112.995 71.8993 112.995C71.2074 112.995 70.6465 113.91 70.6465 115.039C70.6465 116.167 71.2074 117.082 71.8993 117.082Z" fill="#20154F"/>
<path d="M81.7566 109.338C81.6808 109.236 81.6495 109.108 81.6696 108.983C81.6897 108.858 81.7594 108.746 81.8636 108.672C82.5242 108.2 83.3115 107.929 84.1278 107.893C84.944 107.856 85.7531 108.056 86.4545 108.468C86.5094 108.5 86.5574 108.542 86.5956 108.592C86.6338 108.643 86.6616 108.7 86.6773 108.761C86.693 108.822 86.6964 108.885 86.6872 108.947C86.678 109.009 86.6564 109.069 86.6237 109.123C86.591 109.177 86.5478 109.224 86.4966 109.261C86.4454 109.299 86.3871 109.326 86.3252 109.341C86.2632 109.357 86.1988 109.36 86.1355 109.351C86.0722 109.342 86.0114 109.321 85.9565 109.289C85.4187 108.973 84.7981 108.819 84.172 108.847C83.5459 108.875 82.942 109.083 82.4355 109.445C82.3837 109.482 82.3249 109.509 82.2626 109.524C82.2003 109.538 82.1357 109.541 82.0724 109.531C82.0091 109.521 81.9485 109.499 81.894 109.466C81.8394 109.433 81.794 109.389 81.7566 109.338ZM71.8861 128.199C71.8802 132.4 78.4028 133.193 79.9572 128.533C77.6617 129.662 73.9539 129.192 71.8861 128.199ZM76.0646 124.996C75.9465 124.953 75.8499 124.867 75.795 124.756C75.7401 124.645 75.7313 124.517 75.7703 124.4C75.8093 124.283 75.8932 124.185 76.0043 124.127C76.1154 124.069 76.2451 124.055 76.3661 124.089C79.3697 125.053 80.8014 124.515 79.2724 121.799C78.2258 119.943 77.969 117.069 77.9574 116.949C77.9466 116.823 77.9873 116.697 78.0704 116.601C78.1536 116.504 78.2725 116.444 78.4009 116.433C78.5284 116.425 78.654 116.466 78.7517 116.547C78.8495 116.627 78.9119 116.742 78.9261 116.866C78.93 116.895 79.179 119.66 80.1244 121.337C81.8091 124.33 80.5758 126.44 76.0646 124.996ZM68.863 110.933C68.823 110.884 68.7931 110.828 68.7752 110.767C68.7573 110.707 68.7518 110.644 68.7588 110.581C68.7659 110.519 68.7854 110.459 68.8163 110.403C68.8472 110.348 68.8889 110.3 68.9389 110.261C69.5752 109.757 70.3483 109.449 71.1619 109.374C71.9755 109.299 72.7936 109.46 73.5143 109.839C73.5743 109.866 73.6281 109.905 73.6723 109.953C73.7164 110.002 73.7501 110.058 73.7712 110.12C73.7924 110.181 73.8005 110.246 73.7951 110.311C73.7898 110.376 73.771 110.439 73.74 110.496C73.709 110.553 73.6664 110.604 73.6149 110.645C73.5633 110.685 73.5038 110.715 73.4401 110.732C73.3764 110.75 73.3097 110.754 73.2442 110.745C73.1787 110.736 73.1157 110.714 73.0591 110.681C72.5058 110.391 71.878 110.267 71.2537 110.325C70.6294 110.383 70.0362 110.619 69.5478 111.006C69.4474 111.085 69.3191 111.121 69.1911 111.108C69.0631 111.094 68.9439 111.031 68.863 110.933Z" fill="#20154F"/>
<path d="M81.3384 203.365L85.2699 203.422C85.2699 203.422 82.7449 198.669 80.323 198.74C77.9769 198.808 80.926 203.031 81.3384 203.365Z" fill="#F2C3B3"/>
<path d="M102.226 147.277C102.226 147.277 114.349 153.05 121.407 172.323C119.284 178.778 112.921 184.505 105.103 186.894C105.103 186.894 90.9781 164.296 102.226 147.277Z" fill="#FE4C40"/>
<path d="M114.01 175.82H88.9097C88.0149 175.82 87.2231 176.397 86.9625 177.239L75.8878 213.085C75.491 214.366 76.4714 215.663 77.837 215.663H102.935C103.832 215.663 104.624 215.086 104.883 214.244L115.957 178.398C116.354 177.117 115.376 175.82 114.01 175.82Z" fill="#20154F"/>
<path d="M94.9884 193.866C95.4105 191.809 97.1691 190.142 98.9179 190.142C100.665 190.142 101.739 191.809 101.316 193.866C100.894 195.925 99.1338 197.594 97.3869 197.594C95.6381 197.594 94.5663 195.925 94.9884 193.868V193.866Z" fill="#38297A"/>
<path d="M43.1182 175.371C43.1182 175.371 45.0129 195.456 45.114 198.192C45.114 198.192 51.8176 196.903 61.799 198.53C61.799 198.53 73.3405 198.996 76.6514 196.558L82.0361 194.942C82.0361 194.942 88.724 192.624 90.4437 194.165C92.2762 195.807 92.8617 199.902 90.7783 202.182C89.3718 203.723 86.1679 203.803 83.8919 204.019C78.2427 204.552 78.1824 202.487 73.1149 204.81C68.0473 207.132 39.7158 212.511 38.9513 212.347C38.1848 212.183 33.7379 213.325 31.4677 208.721C29.1975 204.118 26.3398 177.411 26.3398 177.411L43.1182 175.371Z" fill="#F2C3B3"/>
<path d="M36.5865 149.083C36.5865 149.083 25.187 158.376 25.0625 178.858C29.2546 184.251 37.1935 187.574 45.3793 187.274C45.3793 187.274 52.9622 161.458 36.5865 149.083Z" fill="#FE4C40"/>
<path d="M56.1145 50.3975H3.87117C1.73327 50.3975 0 52.0971 0 54.1978V75.4338C0 76.4417 0.407854 77.4083 1.13384 78.121C1.85982 78.8337 2.84447 79.2341 3.87117 79.2341H43.4797L52.2375 86.8195C52.8113 87.316 53.7159 86.9169 53.7159 86.1645V79.2341H56.1145C58.2543 79.2341 59.9856 77.5326 59.9856 75.4338V54.1978C59.9856 52.0971 58.2543 50.3975 56.1145 50.3975Z" fill="#FEBF06"/>
<path d="M15.0501 69.0741C14.9842 69.0101 14.9322 68.9336 14.8974 68.8492C14.8626 68.7648 14.8457 68.6743 14.8478 68.5833V59.4472C14.8478 59.1722 14.9451 58.9335 15.1435 58.7349C15.3419 58.5363 15.5793 58.437 15.8613 58.437H16.0637C16.3944 58.437 16.6823 58.5897 16.9196 58.8953L22.9228 67.405V59.1416C22.921 59.0035 22.9613 58.8679 23.0385 58.7524C23.1157 58.6369 23.2264 58.5466 23.3562 58.4933C23.486 58.4399 23.6292 58.4259 23.7672 58.4529C23.9052 58.48 24.0319 58.5469 24.1309 58.6451C24.2709 58.7807 24.341 58.9469 24.341 59.1416V68.2777C24.3433 68.4095 24.3175 68.5403 24.2652 68.6616C24.213 68.783 24.1354 68.8923 24.0375 68.9824C23.9427 69.0763 23.8295 69.1503 23.7049 69.2002C23.5802 69.2501 23.4465 69.2747 23.3119 69.2727H23.1251C22.9622 69.2735 22.8016 69.2341 22.6583 69.1581C22.5174 69.086 22.3945 68.9843 22.2984 68.8602L16.2679 60.3047V68.5833C16.2679 68.7781 16.1959 68.9423 16.0539 69.0741C15.9119 69.2058 15.7466 69.2727 15.5481 69.2727C15.4558 69.2745 15.3639 69.2578 15.2783 69.2237C15.1927 69.1895 15.1151 69.1386 15.0501 69.0741ZM27.0391 59.5694C26.964 59.4983 26.9046 59.4127 26.8644 59.3181C26.8243 59.2236 26.8043 59.1219 26.8057 59.0194V58.9583C26.8057 58.7425 26.8835 58.5592 27.0391 58.4064C27.1947 58.2536 27.3815 58.1772 27.5994 58.1772H27.6927C27.9125 58.1772 28.0993 58.2536 28.2549 58.4064C28.4106 58.5592 28.4884 58.7425 28.4884 58.9583V59.0194C28.4884 59.2333 28.4106 59.4167 28.2549 59.5694C28.1823 59.6435 28.0949 59.702 27.9981 59.7415C27.9014 59.7809 27.7974 59.8003 27.6927 59.7986H27.5994C27.4947 59.8001 27.3908 59.7806 27.2941 59.7412C27.1974 59.7017 27.11 59.6433 27.0372 59.5694H27.0391ZM27.1325 69.0741C27.0665 69.0101 27.0145 68.9336 26.9797 68.8492C26.9449 68.7648 26.9281 68.6743 26.9302 68.5833V62.0177C26.9302 61.8267 26.9963 61.6587 27.1325 61.5212C27.2687 61.3837 27.434 61.3149 27.6305 61.3149C27.7255 61.312 27.8202 61.3282 27.9086 61.3626C27.9971 61.397 28.0774 61.4488 28.1447 61.5148C28.2119 61.5808 28.2647 61.6597 28.2997 61.7465C28.3347 61.8333 28.3513 61.9263 28.3483 62.0196V68.5833C28.3475 68.6748 28.3283 68.7653 28.2918 68.8495C28.2552 68.9337 28.202 69.0099 28.1353 69.0738C28.0686 69.1378 27.9896 69.1881 27.9029 69.2219C27.8163 69.2557 27.7237 69.2723 27.6305 69.2708C27.5382 69.273 27.4464 69.2568 27.3608 69.223C27.2751 69.1891 27.1974 69.1385 27.1325 69.0741ZM32.4179 68.8602C31.7878 68.5376 31.2612 68.0497 30.8967 67.4508C30.5173 66.8397 30.3286 66.1197 30.3286 65.2928C30.3286 64.4659 30.5173 63.746 30.8967 63.1349C31.276 62.5238 31.7837 62.054 32.4179 61.7274C33.0521 61.4008 33.7407 61.2366 34.4896 61.2366C35.0421 61.2366 35.5168 61.3073 35.9175 61.4448C36.3163 61.5823 36.6878 61.758 37.0322 61.9718C37.1279 62.0261 37.2072 62.1044 37.2619 62.1987C37.3166 62.293 37.3448 62.4 37.3434 62.5085C37.3411 62.6659 37.277 62.8164 37.1645 62.9286C37.1138 62.9877 37.0507 63.0354 36.9795 63.0683C36.9083 63.1013 36.8307 63.1188 36.752 63.1196C36.6312 63.1181 36.5127 63.0866 36.4077 63.0279C36.0653 62.856 35.7716 62.73 35.5265 62.6536C35.2814 62.5772 34.9779 62.539 34.6141 62.539C33.7193 62.539 33.019 62.7911 32.5113 63.2972C32.0016 63.8014 31.7468 64.4659 31.7468 65.2947C31.7468 66.1197 31.9997 66.7843 32.5113 67.2904C33.0209 67.7965 33.7212 68.0486 34.6141 68.0486C34.9779 68.0486 35.2833 68.0104 35.5284 67.934C35.7736 67.8576 36.0653 67.7315 36.4077 67.5597C36.5124 67.4999 36.631 67.4677 36.752 67.4661C36.9077 67.4661 37.0438 67.531 37.1645 67.6571C37.2305 67.7236 37.2803 67.804 37.31 67.8922C37.3397 67.9804 37.3485 68.0741 37.3357 68.1662C37.323 68.2583 37.289 68.3462 37.2364 68.4235C37.1838 68.5007 37.114 68.5652 37.0322 68.6119C36.6826 68.8303 36.3086 69.0085 35.9175 69.1428C35.5168 69.2803 35.0421 69.3491 34.4896 69.3491C33.7687 69.3553 33.0572 69.1875 32.4179 68.8602ZM39.6428 68.2854C38.9308 67.5769 38.5748 66.5781 38.5748 65.2947C38.5748 64.5691 38.711 63.9007 38.9814 63.2896C39.2498 62.6765 39.6661 62.1819 40.2264 61.8038C40.7886 61.4276 41.4792 61.2366 42.3001 61.2366C43.0704 61.2366 43.7338 61.4142 44.296 61.7656C44.8582 62.117 45.2842 62.5868 45.574 63.175C45.8639 63.7632 46.0117 64.401 46.0117 65.0942C46.0142 65.1846 45.9982 65.2746 45.9648 65.3589C45.9314 65.4431 45.8812 65.52 45.8172 65.585C45.749 65.6522 45.6672 65.7046 45.577 65.7389C45.4869 65.7731 45.3904 65.7883 45.2939 65.7836H40.0085C40.0921 66.4979 40.3625 67.0536 40.8197 67.4508C41.2768 67.85 41.9169 68.0486 42.7378 68.0486C43.1735 68.0486 43.5548 68.0065 43.8836 67.9263C44.2104 67.8442 44.5294 67.7258 44.8426 67.573C44.9301 67.5323 45.0259 67.5121 45.1227 67.5138C45.2881 67.5138 45.434 67.5692 45.5585 67.6819C45.683 67.7946 45.7472 67.9359 45.7472 68.1097C45.7472 68.335 45.611 68.5222 45.3406 68.6769C44.9616 68.8898 44.5589 69.0589 44.1403 69.181C43.6415 69.3051 43.1277 69.3617 42.6133 69.3491C41.3449 69.3491 40.3548 68.9939 39.6428 68.2854ZM44.6092 64.6512C44.5761 64.1508 44.4438 63.7345 44.2104 63.3965C43.9769 63.0585 43.6871 62.8121 43.3447 62.6536C43.0023 62.4951 42.6541 62.4168 42.3001 62.4168C41.946 62.4168 41.5998 62.4951 41.2554 62.6536C40.9131 62.8121 40.6271 63.0604 40.3995 63.3965C40.1719 63.7326 40.0396 64.1508 40.0104 64.6512H44.6092Z" fill="white"/>
<path d="M490.987 368.657H6.98367C6.06656 368.657 5.15843 368.835 4.31113 369.179C3.46384 369.524 2.69396 370.029 2.04547 370.665C1.39698 371.302 0.882561 372.058 0.531598 372.889C0.180636 373.721 0 374.613 0 375.513V375.526C0 376.427 0.180636 377.318 0.531598 378.15C0.882561 378.982 1.39698 379.738 2.04547 380.374C2.69396 381.011 3.46384 381.516 4.31113 381.86C5.15843 382.205 6.06656 382.382 6.98367 382.382H490.987C492.839 382.382 494.615 381.66 495.925 380.374C497.235 379.089 497.971 377.345 497.971 375.526V375.513C497.971 373.695 497.235 371.951 495.925 370.665C494.615 369.38 492.839 368.657 490.987 368.657Z" fill="#334155"/>
</svg>
