<svg width="216" height="192" viewBox="0 0 216 192" fill="none" xmlns="http://www.w3.org/2000/svg">
<path d="M152.781 176.717C152.781 176.717 159.108 182.557 158.777 184.71C158.446 186.864 157.48 191.999 158.79 191.999H204.57C204.846 192 205.111 191.89 205.306 191.696C205.502 191.501 205.613 191.237 205.614 190.961C205.625 188.893 205.186 184.348 201.267 183.069H207.348C207.527 183.07 207.704 183.023 207.861 182.935C208.017 182.846 208.148 182.719 208.241 182.565C208.334 182.411 208.386 182.235 208.391 182.055C208.397 181.875 208.355 181.697 208.272 181.537C206.808 178.769 203.459 173.197 200.109 172.948C200.109 172.948 193.828 171.179 189.319 167.979C184.811 164.779 172.648 153.663 172.648 153.663L167.374 158.287L169.036 160.026L152.781 176.717Z" fill="#F8FAFC"/>
<path d="M79.9566 146.112C116.04 114.055 125.215 126.729 125.215 126.729C136.505 117 168.762 145.379 174.449 150.539C174.558 150.638 174.644 150.759 174.703 150.894C174.762 151.029 174.792 151.175 174.79 151.323C174.789 151.47 174.756 151.616 174.695 151.749C174.633 151.883 174.544 152.002 174.433 152.099L167.782 157.93L169.115 159.279C169.212 159.377 169.288 159.493 169.34 159.621C169.392 159.749 169.418 159.886 169.417 160.024C169.416 160.161 169.387 160.298 169.333 160.425C169.279 160.552 169.201 160.667 169.102 160.763L150.21 179.231C150.022 179.415 149.772 179.521 149.509 179.528C149.246 179.535 148.99 179.442 148.793 179.268L124.792 158.146C123.734 157.214 122.387 156.677 120.979 156.625C119.572 156.573 118.189 157.01 117.066 157.862C107.878 164.836 84.763 181.451 71.2767 182.916C54.1653 184.775 49.1768 169.247 49.1768 169.247" fill="#64748B"/>
<path d="M10.022 179.982C9.95943 179.982 9.89915 179.958 9.85217 179.917C9.8052 179.876 9.77465 179.819 9.76611 179.756C9.75757 179.694 9.7716 179.631 9.80565 179.579C9.83969 179.526 9.89148 179.487 9.95157 179.47L18.5067 177.047C18.54 177.037 18.5749 177.033 18.6096 177.036C18.6442 177.04 18.6777 177.05 18.7083 177.067C18.7389 177.084 18.7658 177.106 18.7875 177.133C18.8092 177.161 18.8253 177.192 18.8348 177.225C18.8442 177.259 18.8469 177.294 18.8426 177.329C18.8384 177.363 18.8272 177.397 18.8099 177.427C18.7926 177.457 18.7694 177.484 18.7417 177.505C18.714 177.526 18.6824 177.541 18.6487 177.55L10.093 179.972C10.0699 179.979 10.046 179.983 10.022 179.983V179.982ZM23.8679 180.169C23.8052 180.169 23.7446 180.146 23.6971 180.105C23.6497 180.064 23.6185 180.008 23.6094 179.945C23.6003 179.883 23.6138 179.82 23.6475 179.767C23.6811 179.714 23.7327 179.675 23.7927 179.657L28.4223 178.259C28.4883 178.24 28.5594 178.247 28.62 178.28C28.6807 178.313 28.7259 178.368 28.7459 178.434C28.7658 178.5 28.7589 178.572 28.7267 178.633C28.6944 178.694 28.6394 178.739 28.5736 178.76L23.9435 180.157C23.9192 180.165 23.8939 180.169 23.8684 180.169H23.8679Z" fill="#F8FAFC"/>
<path d="M147.67 31.2551L156.494 24.0578L154.733 21.708L147.67 31.2551Z" fill="#F8FAFC"/>
<path d="M81.5762 135.524C81.5762 135.524 77.2807 148.4 61 160.321L79.9555 146.113L81.5762 135.524ZM71.8501 111.421C65.0524 112.934 61.9492 104.462 61.9492 104.462C63.9544 106.068 66.3418 107.125 68.8773 107.528C68.9713 109.6 69.5646 110.416 70.1386 110.758C70.1386 110.758 70.2815 110.843 71.8501 111.421ZM95.9643 92.8251C95.9169 92.8252 95.8704 92.8123 95.8298 92.7879C95.7891 92.7635 95.7559 92.7284 95.7336 92.6865L86.976 76.2359C86.895 76.0838 86.8449 75.9172 86.8284 75.7456C86.8119 75.5741 86.8295 75.4009 86.8801 75.2362C86.9307 75.0714 87.0133 74.9183 87.1231 74.7857C87.233 74.6531 87.368 74.5435 87.5202 74.4634L96.3337 69.8192C96.4905 69.7366 96.6624 69.6868 96.839 69.6729C97.0156 69.6591 97.1932 69.6814 97.3609 69.7385C97.5286 69.7957 97.683 69.8864 97.8146 70.0053C97.9461 70.1242 98.0521 70.2687 98.1262 70.4299L104.471 84.2432C104.487 84.2745 104.496 84.3086 104.498 84.3435C104.5 84.3784 104.495 84.4134 104.484 84.4463C104.472 84.4793 104.454 84.5096 104.43 84.5354C104.407 84.5612 104.378 84.5821 104.347 84.5967C104.315 84.6113 104.281 84.6194 104.246 84.6205C104.211 84.6216 104.176 84.6157 104.144 84.6031C104.111 84.5906 104.081 84.5716 104.056 84.5473C104.031 84.523 104.011 84.4939 103.998 84.4617L97.6524 70.6485C97.6079 70.5517 97.5442 70.465 97.4653 70.3937C97.3863 70.3223 97.2936 70.2678 97.193 70.2336C97.0923 70.1993 96.9857 70.1859 96.8797 70.1942C96.7737 70.2025 96.6705 70.2324 96.5764 70.2819L87.7629 74.9261C87.6716 74.9742 87.5906 75.04 87.5248 75.1196C87.4589 75.1992 87.4094 75.291 87.379 75.3899C87.3487 75.4887 87.3382 75.5926 87.3481 75.6955C87.358 75.7985 87.3882 75.8984 87.4368 75.9896L96.1944 92.4403C96.2157 92.4801 96.2263 92.5248 96.2252 92.57C96.2241 92.6151 96.2114 92.6593 96.1882 92.698C96.165 92.7368 96.1322 92.7689 96.0929 92.7911C96.0537 92.8134 96.0094 92.8251 95.9643 92.8251Z" fill="#F8FAFC"/>
<path d="M105.182 85.2215C104.933 85.2218 104.689 85.1503 104.479 85.0155C104.269 84.8807 104.103 84.6883 103.999 84.4613L98.5617 72.6245C98.4542 72.3911 98.4179 72.1311 98.4573 71.8772C98.4968 71.6232 98.6103 71.3866 98.7835 71.197L120.986 47.4889C121.009 47.4621 121.037 47.4401 121.069 47.4245C121.101 47.4088 121.135 47.3998 121.17 47.3978C121.206 47.3959 121.241 47.4012 121.274 47.4133C121.307 47.4254 121.337 47.4442 121.363 47.4684C121.389 47.4926 121.409 47.5218 121.424 47.5542C121.438 47.5865 121.445 47.6215 121.445 47.6568C121.446 47.6922 121.439 47.7272 121.425 47.7598C121.412 47.7925 121.391 47.822 121.366 47.8466L99.166 71.5521C99.0629 71.6658 98.9956 71.8074 98.9724 71.9593C98.9492 72.1112 98.9711 72.2665 99.0355 72.4059L104.473 84.2422C104.541 84.394 104.657 84.5197 104.802 84.6008C104.947 84.682 105.115 84.7142 105.28 84.6929L136.001 80.7933C136.069 80.7864 136.138 80.806 136.192 80.8481C136.246 80.8903 136.282 80.9517 136.293 81.0197C136.297 81.0539 136.295 81.0885 136.286 81.1217C136.277 81.155 136.261 81.1861 136.24 81.2133C136.219 81.2405 136.193 81.2632 136.163 81.2803C136.133 81.2973 136.1 81.3083 136.066 81.3125L105.344 85.2116C105.29 85.2182 105.236 85.2215 105.182 85.2215ZM88.414 80.3588L85.4688 81.5431C85.336 81.5965 85.2156 81.6766 85.115 81.7785C85.0144 81.8805 84.9358 82.0021 84.8841 82.1357C84.8323 82.2694 84.8086 82.4123 84.8143 82.5556C84.82 82.6988 84.8551 82.8394 84.9173 82.9685L87.9668 89.3015C88.0842 89.5454 88.2916 89.7341 88.5451 89.8279C88.7987 89.9218 89.0786 89.9134 89.3261 89.8045L92.4847 88.4158C92.6163 88.3578 92.7345 88.2733 92.832 88.1674C92.9295 88.0615 93.0041 87.9366 93.0511 87.8004C93.0982 87.6643 93.1166 87.5199 93.1054 87.3763C93.0941 87.2327 93.0533 87.0929 92.9856 86.9658L89.7232 80.8378C89.6022 80.6103 89.4017 80.4356 89.1601 80.3472C88.9184 80.2588 88.6527 80.2629 88.414 80.3588Z" fill="#F8FAFC"/>
<path d="M136.032 81.0531C138.827 79.804 137.767 71.318 133.665 62.099C129.562 52.88 123.97 46.4191 121.175 47.6681C118.379 48.9171 119.439 57.4032 123.542 66.6222C127.645 75.8412 133.237 82.3021 136.032 81.0531Z" fill="#334155"/>
<path d="M125.082 62.3838C124.043 62.3838 123.031 62.7212 122.199 63.3454C122.603 64.4199 123.05 65.5153 123.543 66.6222C124.348 68.438 125.248 70.2106 126.237 71.933C127.385 71.6507 128.389 70.9569 129.061 69.9827C129.734 69.0084 130.026 67.8212 129.884 66.6455C129.742 65.4697 129.175 64.3869 128.29 63.6017C127.405 62.8164 126.264 62.3832 125.082 62.3838ZM36.5475 147.652C36.506 147.652 36.465 147.642 36.4281 147.623C36.3912 147.604 36.3593 147.577 36.3351 147.543C31.8041 141.219 29.9569 134.431 31.1326 128.427C32.2059 122.942 35.7626 118.163 41.4176 114.605C47.4409 110.814 47.4351 106.888 47.4284 102.34C47.4205 97.3441 47.4122 91.6814 54.9754 84.722C59.8074 80.2749 64.2898 78.4475 68.2994 79.2893C73.7462 80.4334 76.2696 86.0501 76.3756 86.2895V86.2901C79.5842 93.6281 80.0878 99.9067 77.7928 103.968C77.231 105.013 76.4287 105.908 75.4525 106.58C74.4763 107.251 73.3543 107.68 72.1797 107.83C66.7757 108.523 62.4614 105.214 61.8524 104.719C58.1245 104.586 56.0728 102.709 56.0728 99.4262C56.064 99.2876 56.0867 99.1489 56.1393 99.0204C56.192 98.892 56.273 98.7772 56.3765 98.6848C56.8461 98.2916 57.6982 98.4453 58.7779 98.6403C59.2955 98.7429 59.818 98.8193 60.3433 98.8694C60.407 98.8711 60.4703 98.8597 60.5294 98.8358C60.5884 98.812 60.642 98.7762 60.6867 98.7308C61.8493 97.7232 62.4441 92.4647 62.5756 90.5238C62.5798 90.4625 62.6054 90.4047 62.6478 90.3604C62.6903 90.3162 62.7469 90.2883 62.8078 90.2817C67.3574 89.8209 71.7716 88.4651 75.7974 86.2922C75.285 85.2663 72.797 80.7654 68.1893 79.7997C64.3529 78.996 60.0281 80.7826 55.3281 85.1068C47.934 91.911 47.9424 97.4518 47.9497 102.34C47.9575 107.042 47.9632 111.104 41.6946 115.048C36.165 118.527 32.6902 123.189 31.6445 128.528C30.4965 134.389 32.3134 141.033 36.7593 147.238C36.7872 147.277 36.8039 147.323 36.8074 147.371C36.8109 147.419 36.8011 147.467 36.7791 147.51C36.7572 147.553 36.7239 147.589 36.6829 147.614C36.642 147.639 36.5949 147.652 36.5469 147.652H36.5475ZM57.2348 98.9645C57.0519 98.9469 56.8681 98.9894 56.7115 99.0858C56.6667 99.1293 56.6327 99.1827 56.6124 99.2417C56.5921 99.3008 56.586 99.3638 56.5946 99.4257C56.5946 102.451 58.4491 104.102 61.9568 104.2C62.0169 104.201 62.0746 104.224 62.1201 104.263C62.1634 104.301 66.5388 108.026 72.1129 107.311C73.2069 107.171 74.2517 106.771 75.1606 106.145C76.0695 105.519 76.8162 104.684 77.3389 103.711C78.6079 101.465 80.1076 96.29 76.0145 86.7701C72.0009 88.928 67.609 90.2885 63.0802 90.7768C62.9842 92.0108 62.4561 97.8884 61.0279 99.1261C60.9315 99.2171 60.8176 99.2875 60.6932 99.333C60.5688 99.3785 60.4364 99.3981 60.3042 99.3907C59.7608 99.3398 59.2204 99.2612 58.685 99.1554C58.2072 99.0536 57.7221 98.9898 57.2343 98.9645H57.2348Z" fill="#F8FAFC"/>
<path d="M69.6933 125.902C69.6213 125.902 69.5488 125.901 69.4752 125.898C62.4046 125.596 60.0183 113.498 59.9197 112.983C59.9073 112.918 59.9199 112.851 59.9549 112.795C59.99 112.739 60.0449 112.698 60.1086 112.681C61.4695 112.313 61.8003 107.45 61.6886 104.471C61.6861 104.401 61.7111 104.334 61.7582 104.283C61.8053 104.232 61.8705 104.202 61.9396 104.2C61.9742 104.197 62.0088 104.202 62.0415 104.214C62.0741 104.225 62.104 104.243 62.1294 104.267C62.1548 104.29 62.1751 104.319 62.189 104.351C62.203 104.382 62.2103 104.417 62.2105 104.451C62.2402 105.252 62.4348 112.064 60.4765 113.094C60.8276 114.714 63.3256 125.112 69.4976 125.375C69.9821 125.428 70.4721 125.357 70.9213 125.167C71.3705 124.978 71.7639 124.676 72.0644 124.292C74.3729 121.271 72.0509 113.008 71.6569 111.68C71.0468 111.637 70.4675 111.395 70.0069 110.992C69.1924 110.287 68.7248 109.127 68.6173 107.546C68.6126 107.477 68.6355 107.409 68.681 107.357C68.7265 107.304 68.7909 107.272 68.86 107.268C68.929 107.263 68.9971 107.286 69.0493 107.331C69.1014 107.377 69.1334 107.441 69.1381 107.511C69.2451 109.087 69.7455 110.217 70.5866 110.778C70.9542 111.027 71.3879 111.16 71.8317 111.16C71.89 111.157 71.9476 111.173 71.9959 111.206C72.0442 111.239 72.0805 111.286 72.0994 111.342C72.2252 111.74 75.1437 121.122 72.4787 124.61C72.1527 125.034 71.7292 125.373 71.2442 125.598C70.7592 125.823 70.2272 125.928 69.6933 125.902Z" fill="#F8FAFC"/>
<path d="M55.979 135.297C52.5778 135.297 46.2184 131.9 45.3611 131.433C45.311 131.406 45.2712 131.363 45.2478 131.311C45.2243 131.259 45.2185 131.201 45.2311 131.145C45.2666 130.987 48.9277 115.323 60.117 112.68C60.1504 112.672 60.185 112.671 60.2188 112.676C60.2526 112.682 60.285 112.694 60.3142 112.712C60.3433 112.73 60.3686 112.754 60.3887 112.782C60.4087 112.81 60.423 112.841 60.4309 112.875C60.4387 112.908 60.4399 112.943 60.4344 112.977C60.4289 113.01 60.4167 113.043 60.3987 113.072C60.3806 113.101 60.357 113.127 60.3292 113.147C60.3014 113.167 60.2699 113.181 60.2365 113.189C50.0298 115.6 46.2409 129.28 45.7874 131.069C48.661 132.611 55.8407 135.958 57.3232 134.378C58.531 132.975 59.3232 131.262 59.6103 129.431C59.6138 129.396 59.6242 129.363 59.6408 129.332C59.6575 129.302 59.6801 129.275 59.7073 129.253C59.7345 129.231 59.7657 129.215 59.7992 129.206C59.8327 129.196 59.8677 129.194 59.9023 129.198C59.9368 129.202 59.9701 129.213 60.0002 129.231C60.0303 129.248 60.0567 129.272 60.0777 129.299C60.0987 129.327 60.114 129.359 60.1227 129.393C60.1313 129.426 60.1331 129.461 60.1279 129.496C59.8344 131.439 58.9931 133.257 57.7031 134.737C57.4684 134.942 57.1947 135.097 56.8983 135.194C56.602 135.29 56.2892 135.325 55.979 135.296V135.297Z" fill="#F8FAFC"/>
<path d="M27.5771 182.85C26.9142 182.874 26.2512 182.804 25.6078 182.642C24.5647 182.315 23.8963 181.82 23.6197 181.169C23.4998 180.886 23.4584 180.575 23.4997 180.27C20.9177 180.919 10.2351 183.504 8.81578 182.258C8.62225 182.121 8.46886 181.935 8.37158 181.718C8.2743 181.502 8.23668 181.263 8.26265 181.027C8.33511 180.778 8.4565 180.545 8.61973 180.342C8.78297 180.14 8.98478 179.972 9.2134 179.849C8.54443 179.693 7.6777 179.373 7.52585 178.743C7.39539 178.201 7.79823 177.616 8.75629 176.958C8.68482 176.785 8.649 176.598 8.65097 176.41C8.65295 176.222 8.69267 176.037 8.76777 175.865C9.07877 175.172 9.97316 174.691 11.4285 174.433C11.3534 174.257 11.3367 174.061 11.381 173.874C11.5736 173.065 12.8338 172.415 15.2352 171.887C20.5942 170.707 24.2563 169.309 24.7912 168.235C25.4069 167.002 44.4459 132.542 45.2563 131.076C45.2902 131.016 45.3463 130.972 45.4124 130.953C45.4785 130.934 45.5494 130.943 45.6095 130.976C45.6696 131.009 45.7142 131.065 45.7335 131.131C45.7529 131.197 45.7454 131.268 45.7129 131.329C45.5146 131.688 25.8682 167.246 25.2577 168.469C24.3742 170.242 18.0326 171.807 15.3468 172.397C12.4147 173.042 11.9519 173.729 11.8882 173.995C11.8761 174.074 11.8842 174.155 11.9117 174.23C11.9393 174.305 11.9854 174.371 12.0458 174.424C12.0854 174.456 12.1147 174.499 12.1302 174.547C12.1457 174.596 12.1466 174.648 12.1329 174.697C12.1192 174.746 12.0915 174.79 12.0531 174.824C12.0147 174.857 11.9674 174.879 11.9169 174.886C10.0327 175.147 9.42265 175.679 9.24367 176.079C9.1904 176.212 9.16853 176.356 9.17975 176.499C9.19097 176.643 9.23499 176.781 9.30837 176.905C9.32754 176.933 9.34081 176.966 9.34742 177C9.35402 177.034 9.35382 177.069 9.34683 177.103C9.33984 177.136 9.32619 177.169 9.30669 177.197C9.28719 177.226 9.26222 177.25 9.23323 177.269C8.39415 177.812 7.95687 178.304 8.03305 178.62C8.15307 179.116 9.44144 179.401 10.0473 179.461C10.1054 179.467 10.1599 179.492 10.202 179.533C10.2441 179.573 10.2714 179.627 10.2795 179.685C10.2877 179.743 10.2761 179.802 10.2468 179.852C10.2174 179.903 10.172 179.942 10.1177 179.964C9.77644 180.1 8.87057 180.572 8.77664 181.117C8.7706 181.264 8.80277 181.411 8.86999 181.542C8.93722 181.673 9.0372 181.784 9.16017 181.865C10.1501 182.737 18.6677 180.97 23.8023 179.654C23.8508 179.641 23.9019 179.643 23.9494 179.659C23.997 179.675 24.039 179.704 24.0705 179.743C24.1019 179.782 24.1215 179.829 24.1269 179.879C24.1323 179.929 24.1232 179.979 24.1008 180.024C24.0374 180.174 24.0049 180.336 24.0054 180.499C24.0058 180.662 24.0392 180.823 24.1034 180.973C24.3194 181.471 24.8778 181.866 25.7638 182.143C26.8351 182.478 29.4781 182.354 33.4069 181.783C34.9479 181.564 36.4066 180.951 37.6428 180.003C38.8791 179.055 39.8513 177.805 40.466 176.372C50.8345 152.487 56.8218 137.024 56.4821 135.008C56.4707 134.939 56.4869 134.869 56.5271 134.813C56.5673 134.756 56.6283 134.718 56.6966 134.707C56.7649 134.695 56.8349 134.711 56.8913 134.752C56.9476 134.792 56.9857 134.853 56.9971 134.922C57.4908 137.855 47.152 162.282 40.945 176.581C40.295 178.096 39.267 179.417 37.96 180.419C36.6529 181.421 35.1107 182.069 33.4815 182.301C31.528 182.617 29.5554 182.8 27.5771 182.85Z" fill="#F8FAFC"/>
<path d="M9.09217 177.311C9.02755 177.311 8.96531 177.286 8.91749 177.243C8.86966 177.199 8.83967 177.14 8.8333 177.075C8.82694 177.011 8.84466 176.946 8.88303 176.894C8.92141 176.842 8.97771 176.806 9.04103 176.793L15.1786 175.551C15.2126 175.543 15.2478 175.542 15.2822 175.548C15.3165 175.554 15.3494 175.567 15.3787 175.586C15.408 175.605 15.4332 175.63 15.4528 175.658C15.4725 175.687 15.4861 175.72 15.493 175.754C15.4999 175.788 15.4998 175.824 15.4929 175.858C15.4859 175.892 15.4721 175.925 15.4524 175.953C15.4327 175.982 15.4074 176.007 15.378 176.026C15.3486 176.045 15.3158 176.057 15.2814 176.063L9.14435 177.306C9.12718 177.31 9.10969 177.311 9.09217 177.311V177.311ZM11.8823 174.888C11.819 174.888 11.7578 174.865 11.7101 174.824C11.6624 174.782 11.6316 174.724 11.6233 174.661C11.615 174.598 11.6298 174.534 11.665 174.482C11.7002 174.429 11.7533 174.391 11.8145 174.374L16.6507 173.07C16.7175 173.052 16.7888 173.061 16.8488 173.096C16.9087 173.13 16.9526 173.187 16.9705 173.254C16.9885 173.321 16.9792 173.393 16.9447 173.453C16.9101 173.513 16.8532 173.557 16.7863 173.575L11.9507 174.879C11.9286 174.885 11.9058 174.888 11.8828 174.888H11.8823ZM47.4196 170.503C47.2326 170.502 47.0516 170.437 46.9066 170.319C45.6856 169.358 45.8416 164.369 45.863 163.803C45.8617 163.768 45.868 163.733 45.8815 163.7C45.8949 163.668 45.9153 163.639 45.941 163.615C45.9668 163.591 45.9974 163.573 46.0308 163.562C46.0642 163.551 46.0995 163.548 46.1343 163.552C46.2034 163.555 46.2685 163.585 46.3154 163.636C46.3624 163.686 46.3873 163.754 46.3848 163.823C46.3065 165.857 46.4662 169.308 47.2286 169.907C47.2681 169.942 47.316 169.966 47.3675 169.976C47.419 169.986 47.4723 169.982 47.5218 169.964C48.9015 169.57 71.1152 152.596 79.697 145.982C79.721 144.044 80.2752 141.097 80.8121 138.245C81.1617 136.387 81.4921 134.632 81.682 133.156C82.1631 129.421 79.2519 122.801 79.2227 122.735C79.2074 122.701 79.1996 122.664 79.2001 122.626C79.2005 122.588 79.2091 122.551 79.2252 122.517C79.2413 122.483 79.2646 122.453 79.2934 122.429C79.3222 122.404 79.356 122.387 79.3923 122.377C84.1752 121.07 85.3347 113.895 85.5022 112.631C78.8976 109.856 71.9887 111.654 71.9193 111.673C71.886 111.683 71.8512 111.685 71.8168 111.681C71.7824 111.677 71.7492 111.666 71.7191 111.649C71.6889 111.632 71.6625 111.609 71.6413 111.581C71.6202 111.554 71.6047 111.523 71.5957 111.489C71.5868 111.456 71.5846 111.421 71.5893 111.386C71.594 111.352 71.6055 111.319 71.6231 111.289C71.6406 111.259 71.664 111.233 71.6918 111.212C71.7195 111.191 71.7511 111.176 71.7847 111.168C71.8557 111.149 79.064 109.271 85.8883 112.228C85.9392 112.25 85.9818 112.287 86.0098 112.335C86.0379 112.383 86.05 112.439 86.0444 112.494C86.0089 112.849 85.126 121.066 79.817 122.795C80.3754 124.111 82.6479 129.741 82.1996 133.223C82.0076 134.713 81.6762 136.475 81.3251 138.342C80.7808 141.235 80.2178 144.226 80.2178 146.112C80.2178 146.152 80.2087 146.191 80.191 146.227C80.1734 146.263 80.1477 146.295 80.116 146.319C78.8637 147.284 49.4291 169.962 47.6653 170.467C47.5856 170.491 47.5031 170.503 47.4201 170.503H47.4196ZM134.872 125.131C131.007 124.327 127.629 124.65 125.216 126.729L148.527 142.136L134.872 125.131Z" fill="#F8FAFC"/>
<path d="M89.6552 115.527C88.596 115.527 86.6412 114.92 85.392 114.491C85.3265 114.468 85.2727 114.42 85.2423 114.358C85.2119 114.296 85.2075 114.224 85.23 114.158C85.2525 114.093 85.3 114.039 85.3622 114.008C85.4244 113.978 85.4961 113.973 85.5616 113.996C87.4213 114.636 89.6271 115.187 89.9464 114.983C90.4891 114.421 96.6867 103.525 96.2327 102.524C89.6855 93.5406 89.3119 91.3676 89.7179 90.4787C89.8408 90.2658 90.0202 90.0911 90.236 89.9739C90.4519 89.8567 90.6958 89.8016 90.941 89.8147C92.5169 89.6881 96.1941 92.5268 96.6079 92.8515C96.6417 92.878 96.6686 92.9124 96.686 92.9517C96.7035 92.991 96.7111 93.0339 96.7081 93.0769C96.7065 93.0941 96.5881 94.8076 97.3906 95.4925C97.578 95.635 97.7976 95.729 98.0299 95.7661C98.2622 95.8033 98.5 95.7824 98.7223 95.7053C98.7581 95.6968 98.7952 95.696 98.8314 95.7029C98.8675 95.7098 98.9017 95.7242 98.9319 95.7453C98.9621 95.7664 98.9874 95.7936 99.0063 95.8252C99.0253 95.8568 99.0373 95.892 99.0417 95.9286C99.0438 95.9443 99.2478 97.55 100.186 98.1979C100.391 98.3336 100.624 98.4217 100.867 98.4558C101.111 98.4899 101.358 98.4691 101.593 98.395C101.63 98.3854 101.669 98.3843 101.706 98.3916C101.744 98.3989 101.779 98.4146 101.81 98.4373C101.841 98.46 101.866 98.4891 101.885 98.5227C101.903 98.5563 101.914 98.5936 101.916 98.6319C101.917 98.6517 102.055 100.62 103.155 101.494C103.392 101.675 103.664 101.802 103.955 101.867C104.245 101.932 104.546 101.932 104.836 101.869C104.877 101.863 104.919 101.866 104.959 101.878C104.998 101.891 105.034 101.913 105.064 101.942C105.093 101.971 105.115 102.007 105.128 102.047C105.141 102.087 105.144 102.129 105.137 102.17C105.134 102.185 104.902 103.709 106.024 104.537C106.497 104.857 107.066 105.003 107.635 104.951C108.203 104.899 108.737 104.653 109.145 104.253L111.025 102.484C111.076 102.439 111.143 102.415 111.211 102.418C111.279 102.422 111.343 102.451 111.389 102.501C111.436 102.551 111.461 102.617 111.46 102.685C111.458 102.753 111.43 102.818 111.382 102.866L109.502 104.634C109.096 105.067 108.566 105.362 107.985 105.478C107.405 105.594 106.802 105.526 106.262 105.283C105.721 105.04 105.27 104.634 104.971 104.121C104.672 103.609 104.54 103.016 104.593 102.425C103.96 102.484 103.329 102.297 102.829 101.903C101.816 101.096 101.512 99.5971 101.426 98.9602C100.89 99.0549 100.338 98.9354 99.8886 98.6271C99.0093 98.0196 98.678 96.8128 98.5699 96.2669C98.3048 96.3207 98.031 96.3148 97.7684 96.2496C97.5058 96.1844 97.2609 96.0616 97.0515 95.8899C96.1941 95.1563 96.1665 93.6536 96.1811 93.1804C95.0174 92.2837 92.102 90.2397 90.9838 90.336C90.5209 90.3736 90.2913 90.4782 90.1922 90.6967C89.698 91.778 91.874 95.6557 96.6585 102.221C97.6333 103.559 90.4004 115.266 90.308 115.358C90.1186 115.493 89.8862 115.553 89.6552 115.527Z" fill="#F8FAFC"/>
<path d="M96.3871 128.319C91.7158 128.32 79.8972 123.108 79.3556 122.868C79.294 122.839 79.2462 122.787 79.2224 122.723C79.1987 122.659 79.2008 122.588 79.2284 122.525C79.256 122.463 79.3069 122.414 79.3701 122.389C79.4333 122.363 79.504 122.364 79.5669 122.39C79.7083 122.453 93.7759 128.664 97.2497 127.703C99.411 127.106 103.824 121.556 110.363 111.21C114.071 105.347 114.805 98.7163 114.912 95.2862C114.951 94.0115 114.66 93.053 114.043 92.4376C113.558 91.9781 112.92 91.7164 112.253 91.704C112.216 91.7085 112.177 91.7032 112.142 91.6885C112.107 91.6739 112.076 91.6504 112.053 91.6204C112.028 91.5928 112.008 91.56 111.996 91.5243C111.985 91.4886 111.981 91.4507 111.985 91.4133C112.03 91.1667 112.018 90.913 111.951 90.6715C111.884 90.43 111.762 90.207 111.596 90.0193C110.82 89.1827 109.182 89.2413 109.166 89.2408C109.126 89.2431 109.085 89.2358 109.049 89.2194C109.012 89.2031 108.979 89.1781 108.954 89.1467C108.928 89.1158 108.91 89.0793 108.901 89.0402C108.892 89.0011 108.892 88.9604 108.901 88.9213C108.996 88.6625 109.024 88.3836 108.982 88.1109C108.94 87.8383 108.829 87.5809 108.66 87.3631C107.956 86.6431 106.315 86.9731 106.297 86.9773C106.249 86.9872 106.2 86.9834 106.154 86.9663C106.108 86.9491 106.068 86.9194 106.038 86.8804C106.008 86.8414 105.99 86.7948 105.985 86.7459C105.98 86.697 105.989 86.6478 106.011 86.6039C106.062 86.4562 106.056 86.2949 105.994 86.1516C105.896 85.8975 105.606 85.5184 104.776 85.154C103.557 84.6201 99.1517 89.8149 96.6595 93.2125C96.6186 93.2685 96.5572 93.3059 96.4888 93.3164C96.4204 93.327 96.3506 93.31 96.2947 93.269C96.2389 93.228 96.2016 93.1665 96.191 93.0979C96.1805 93.0294 96.1975 92.9595 96.2384 92.9035C97.3566 91.3793 103.036 83.817 104.985 84.675C105.311 84.7816 105.613 84.9529 105.871 85.1787C106.13 85.4046 106.341 85.6804 106.491 85.9896C106.54 86.1239 106.565 86.2658 106.566 86.4089C107.174 86.3409 108.363 86.3132 109.032 86.9966C109.237 87.2282 109.384 87.5057 109.46 87.8058C109.536 88.106 109.539 88.42 109.469 88.7216C110.049 88.7467 111.264 88.8941 111.977 89.6612C112.166 89.8672 112.311 90.109 112.405 90.3723C112.499 90.6356 112.539 90.9151 112.523 91.1942C113.23 91.2604 113.894 91.566 114.405 92.0606C115.132 92.7822 115.478 93.8729 115.433 95.3024C115.324 98.7863 114.579 105.521 110.805 111.49C104.1 122.097 99.7111 127.565 97.3879 128.207C97.0607 128.289 96.7242 128.327 96.3871 128.32V128.319Z" fill="#F8FAFC"/>
<path d="M98.7834 96.2213C98.7339 96.2213 98.6855 96.2072 98.6437 96.1807C98.6019 96.1541 98.5685 96.1162 98.5474 96.0714C98.5262 96.0266 98.5183 95.9766 98.5244 95.9274C98.5305 95.8783 98.5505 95.8318 98.582 95.7936L103.935 89.2885C103.956 89.2601 103.983 89.2363 104.013 89.2186C104.044 89.2008 104.077 89.1895 104.113 89.1852C104.148 89.181 104.183 89.1839 104.217 89.1938C104.251 89.2037 104.283 89.2205 104.31 89.243C104.337 89.2655 104.359 89.2933 104.376 89.3247C104.392 89.3562 104.402 89.3906 104.404 89.4259C104.407 89.4612 104.402 89.4966 104.391 89.5301C104.379 89.5636 104.361 89.5943 104.337 89.6205L98.9848 96.1261C98.9604 96.1559 98.9296 96.1799 98.8948 96.1964C98.86 96.2129 98.8219 96.2214 98.7834 96.2213ZM101.657 98.9099C101.608 98.9099 101.56 98.8963 101.519 98.8705C101.477 98.8448 101.444 98.8079 101.423 98.7642C101.401 98.7205 101.392 98.6716 101.397 98.623C101.402 98.5745 101.42 98.5282 101.449 98.4895L106.781 91.5316C106.824 91.4779 106.886 91.4431 106.954 91.4348C107.022 91.4264 107.09 91.4451 107.144 91.4869C107.199 91.5287 107.234 91.5902 107.244 91.6581C107.253 91.726 107.236 91.795 107.195 91.8501L101.863 98.8079C101.839 98.8396 101.807 98.8653 101.772 98.883C101.736 98.9007 101.696 98.9099 101.657 98.9099ZM104.88 102.39C104.822 102.39 104.764 102.37 104.719 102.333C104.664 102.29 104.629 102.228 104.621 102.159C104.613 102.09 104.632 102.021 104.675 101.966L110.131 95.0082C110.174 94.9536 110.236 94.9183 110.305 94.91C110.374 94.9018 110.443 94.9212 110.497 94.964C110.552 95.0069 110.587 95.0697 110.595 95.1385C110.604 95.2074 110.584 95.2768 110.541 95.3313L105.085 102.289C105.061 102.32 105.03 102.345 104.994 102.363C104.959 102.38 104.92 102.389 104.88 102.389V102.39ZM201.267 183.07C201.267 183.07 197.585 182.098 190.634 178.71C183.684 175.322 169.4 159.829 169.4 159.829C169.4 159.829 185.375 173.439 190.822 175.322C196.27 177.204 207.296 179.798 207.296 179.798L208.22 181.533C208.304 181.692 208.347 181.871 208.342 182.051C208.337 182.232 208.286 182.408 208.193 182.563C208.101 182.718 207.969 182.846 207.813 182.935C207.656 183.024 207.478 183.071 207.298 183.07H201.267ZM72.6634 99.3496C72.4632 99.3501 72.2643 99.3174 72.0748 99.2529C71.5846 99.0671 71.1844 98.6996 70.957 98.2265C70.9394 98.1958 70.9281 98.1617 70.924 98.1265C70.9199 98.0913 70.9229 98.0556 70.933 98.0216C70.9431 97.9876 70.96 97.956 70.9826 97.9287C71.0053 97.9014 71.0332 97.8791 71.0648 97.863C71.0963 97.8469 71.1308 97.8374 71.1661 97.8351C71.2015 97.8328 71.2369 97.8377 71.2703 97.8496C71.3036 97.8614 71.3342 97.8799 71.3602 97.904C71.3862 97.9281 71.4071 97.9572 71.4215 97.9896C71.588 98.3415 71.8824 98.6164 72.2444 98.7583C72.5944 98.8487 72.9643 98.8223 73.2979 98.683C73.6316 98.5437 73.9108 98.2992 74.0932 97.9865C74.3593 97.4793 74.0587 96.6804 73.4101 95.0647C73.236 94.6315 73.0476 94.2042 72.845 93.7836C72.6126 93.3238 72.4239 92.8431 72.2814 92.3478C71.9109 91.0616 71.6422 90.1324 72.1838 89.4893C72.7098 88.8645 73.8797 88.7761 75.1624 89.2644C75.1957 89.2756 75.2264 89.2934 75.2527 89.3168C75.279 89.3402 75.3003 89.3686 75.3154 89.4005C75.3304 89.4323 75.3389 89.4668 75.3403 89.502C75.3416 89.5372 75.3359 89.5723 75.3234 89.6053C75.3109 89.6382 75.292 89.6682 75.2676 89.6936C75.2432 89.719 75.214 89.7392 75.1816 89.753C75.1493 89.7667 75.1145 89.7738 75.0794 89.7738C75.0442 89.7738 75.0094 89.7666 74.9771 89.7528C73.9204 89.3512 72.9587 89.3805 72.5825 89.826C72.2214 90.2558 72.4573 91.0725 72.7834 92.2025C72.9178 92.6707 73.0961 93.1252 73.3157 93.5598C73.4659 93.8767 73.6538 94.271 73.8943 94.8696C74.5722 96.5564 74.9453 97.4861 74.5544 98.2302C74.3626 98.5645 74.0876 98.8434 73.7561 99.0396C73.4247 99.2358 73.0482 99.3426 72.6634 99.3496ZM70.9941 103.246C70.4815 103.264 69.9772 103.112 69.5591 102.815C69.2478 102.538 69.0017 102.196 68.8383 101.813C68.675 101.43 68.5986 101.015 68.6146 100.599C68.6142 100.564 68.6212 100.529 68.635 100.497C68.6488 100.465 68.6693 100.437 68.6949 100.413C68.7206 100.39 68.7509 100.372 68.7839 100.361C68.8169 100.35 68.8519 100.346 68.8865 100.349C68.9556 100.352 69.0207 100.383 69.0677 100.434C69.1146 100.484 69.1395 100.552 69.137 100.621C69.126 100.953 69.1861 101.283 69.3132 101.589C69.4403 101.896 69.6315 102.171 69.8738 102.397C70.4478 102.825 71.3374 102.834 72.522 102.423C72.5546 102.41 72.5893 102.405 72.6242 102.406C72.659 102.408 72.6932 102.416 72.7247 102.431C72.7562 102.446 72.7844 102.467 72.8077 102.493C72.831 102.519 72.8488 102.549 72.8602 102.582C72.8716 102.615 72.8762 102.65 72.8739 102.685C72.8715 102.72 72.8623 102.754 72.8466 102.785C72.8309 102.816 72.8092 102.844 72.7826 102.866C72.7561 102.889 72.7253 102.906 72.6921 102.917C72.1481 103.119 71.5743 103.231 70.9941 103.246ZM65.5077 93.5206C65.4642 93.5206 65.4214 93.5097 65.3832 93.4888C65.345 93.468 65.3126 93.4379 65.289 93.4013C65.2653 93.3648 65.2512 93.3228 65.2478 93.2794C65.2445 93.2359 65.252 93.1923 65.2698 93.1525C65.6455 92.374 66.3016 91.767 67.106 91.4537C67.5585 91.32 68.0339 91.2833 68.5015 91.346C68.969 91.4087 69.4181 91.5694 69.8195 91.8176C69.8806 91.8502 69.9263 91.9058 69.9465 91.9721C69.9667 92.0385 69.9598 92.1101 69.9272 92.1714C69.9111 92.2017 69.8892 92.2285 69.8628 92.2504C69.8363 92.2722 69.8058 92.2886 69.7731 92.2986C69.7068 92.3189 69.6353 92.3119 69.5742 92.2793C69.2359 92.067 68.8571 91.9278 68.462 91.8706C68.0669 91.8134 67.6642 91.8396 67.2798 91.9473C66.6115 92.2155 66.0653 92.7211 65.7457 93.3674C65.7249 93.4132 65.6914 93.452 65.6492 93.4791C65.607 93.5063 65.5579 93.5207 65.5077 93.5206Z" fill="#F8FAFC"/>
<path d="M68.5713 95.7954C69.025 95.7954 69.3927 95.4269 69.3927 94.9724C69.3927 94.5179 69.025 94.1494 68.5713 94.1494C68.1177 94.1494 67.75 94.5179 67.75 94.9724C67.75 95.4269 68.1177 95.7954 68.5713 95.7954Z" fill="#F8FAFC"/>
<path d="M75.0694 93.6275C75.523 93.6275 75.8907 93.259 75.8907 92.8045C75.8907 92.3499 75.523 91.9814 75.0694 91.9814C74.6158 91.9814 74.248 92.3499 74.248 92.8045C74.248 93.259 74.6158 93.6275 75.0694 93.6275Z" fill="#F8FAFC"/>
<path d="M147.669 31.5161C147.647 31.516 147.625 31.5132 147.604 31.5077C147.553 31.4945 147.508 31.4666 147.474 31.4275C147.439 31.3884 147.417 31.3398 147.411 31.2881L145.938 19.7389L133.025 18.1478C132.969 18.1408 132.916 18.1155 132.875 18.0756C132.834 18.0358 132.807 17.9836 132.799 17.927C132.79 17.8705 132.801 17.8127 132.828 17.7626C132.855 17.7125 132.898 17.6727 132.951 17.6495L172.398 0.0228854C172.445 0.00200352 172.496 -0.00479117 172.547 0.00333833C172.597 0.0114678 172.644 0.0341651 172.681 0.0686336C172.719 0.103102 172.746 0.147833 172.758 0.197309C172.77 0.246786 172.768 0.298844 172.752 0.347064L162.088 31.2771C162.073 31.3219 162.046 31.3617 162.009 31.3922C161.973 31.4227 161.929 31.4427 161.882 31.4501C161.836 31.4575 161.788 31.4521 161.744 31.4343C161.7 31.4165 161.662 31.3871 161.633 31.3493L154.735 22.1451L147.879 31.4104C147.855 31.4432 147.823 31.4699 147.787 31.4882C147.75 31.5066 147.71 31.5161 147.669 31.5161ZM154.733 21.4466C154.774 21.4466 154.814 21.456 154.85 21.4742C154.886 21.4923 154.917 21.5187 154.941 21.5511L161.756 30.6413L172.062 0.745494L134.021 17.7441L146.203 19.2447C146.261 19.2518 146.314 19.2779 146.355 19.3189C146.396 19.3599 146.423 19.4135 146.43 19.4711L147.846 30.577L154.524 21.5522C154.548 21.5195 154.579 21.493 154.615 21.4746C154.652 21.4563 154.692 21.4467 154.732 21.4466H154.733Z" fill="#F8FAFC"/>
<path d="M146.171 19.505L172.504 0.261719L154.732 21.7079L147.67 31.255L146.171 19.505ZM87.5783 125.858C87.5783 125.858 84.3055 124.182 83.8614 118.754C82.7343 121.433 79.4599 122.629 79.4599 122.629C79.4599 122.629 83.349 124.353 87.5773 125.858H87.5783ZM129.922 55.5644C129.874 55.5644 129.827 55.551 129.786 55.5259C129.745 55.5008 129.712 55.4648 129.69 55.422C129.668 55.3792 129.658 55.3312 129.662 55.2833C129.666 55.2354 129.682 55.1893 129.71 55.1503C130.217 54.4455 130.715 53.7334 131.202 53.0144C131.24 52.957 131.3 52.9174 131.368 52.9043C131.436 52.8912 131.507 52.9057 131.564 52.9446C131.621 52.9835 131.661 53.0436 131.674 53.1117C131.687 53.1798 131.672 53.2503 131.634 53.3077C131.144 54.0308 130.644 54.7468 130.133 55.4557C130.109 55.4894 130.078 55.5168 130.041 55.5357C130.004 55.5547 129.963 55.5645 129.922 55.5644H129.922ZM132.852 51.2387C132.805 51.2386 132.759 51.2259 132.719 51.2019C132.679 51.178 132.646 51.1437 132.623 51.1026C132.601 51.0615 132.59 51.0151 132.592 50.9684C132.593 50.9216 132.607 50.8761 132.632 50.8366C133.099 50.1041 133.556 49.3654 134.003 48.6207C134.038 48.5612 134.096 48.5183 134.163 48.5015C134.23 48.4847 134.302 48.4953 134.361 48.531C134.42 48.5667 134.463 48.6246 134.48 48.6919C134.497 48.7592 134.486 48.8305 134.45 48.89C134.001 49.6387 133.541 50.3815 133.071 51.1179C133.048 51.155 133.015 51.1855 132.977 51.2066C132.939 51.2277 132.895 51.2388 132.852 51.2387ZM135.543 46.7598C135.498 46.7597 135.453 46.7477 135.413 46.7248C135.374 46.702 135.341 46.6692 135.318 46.6297C135.295 46.5902 135.283 46.5453 135.283 46.4996C135.282 46.4539 135.294 46.4089 135.317 46.3692C135.739 45.6253 136.158 44.8642 136.574 44.0858C136.589 44.0537 136.61 44.025 136.637 44.0014C136.663 43.9778 136.694 43.9599 136.728 43.9488C136.762 43.9376 136.797 43.9335 136.832 43.9365C136.868 43.9396 136.902 43.9498 136.933 43.9666C136.964 43.9834 136.992 44.0063 137.014 44.0341C137.036 44.0619 137.052 44.0939 137.062 44.1281C137.071 44.1624 137.073 44.1982 137.068 44.2333C137.063 44.2685 137.051 44.3023 137.033 44.3326C136.615 45.1148 136.195 45.88 135.77 46.628C135.747 46.6681 135.714 46.7015 135.674 46.7246C135.635 46.7478 135.589 46.7599 135.543 46.7598ZM76.0206 85.9617C75.9553 85.9614 75.8925 85.9365 75.8446 85.8921C75.7966 85.8476 75.7671 85.7867 75.7618 85.7215C75.7565 85.6563 75.7758 85.5914 75.8159 85.5397C75.856 85.4881 75.914 85.4534 75.9784 85.4425L78.5519 85.0137C78.5858 85.0081 78.6204 85.0092 78.6538 85.0169C78.6871 85.0247 78.7187 85.039 78.7466 85.059C78.7745 85.0789 78.7981 85.1042 78.8163 85.1334C78.8344 85.1625 78.8466 85.195 78.8523 85.2289C78.8579 85.2627 78.8568 85.2974 78.849 85.3309C78.8413 85.3643 78.827 85.3959 78.8071 85.4239C78.7872 85.4518 78.7619 85.4755 78.7328 85.4937C78.7037 85.5119 78.6713 85.5241 78.6375 85.5298L76.0639 85.958C76.0496 85.9605 76.0351 85.9617 76.0206 85.9617ZM81.1663 85.0947C81.1008 85.095 81.0376 85.0705 80.9893 85.0262C80.9409 84.9819 80.911 84.921 80.9054 84.8556C80.8998 84.7902 80.919 84.7251 80.9591 84.6732C80.9992 84.6214 81.0573 84.5865 81.1219 84.5755C81.978 84.426 82.8328 84.2714 83.6861 84.1117C83.753 84.1013 83.8213 84.1173 83.8767 84.1565C83.932 84.1956 83.9699 84.2548 83.9826 84.3214C83.9951 84.3881 83.9814 84.457 83.9442 84.5137C83.907 84.5704 83.8492 84.6104 83.7832 84.6252C82.9263 84.7866 82.0692 84.9417 81.2116 85.0906C81.1967 85.0932 81.1815 85.0946 81.1663 85.0947ZM86.2931 84.1232C86.2284 84.1233 86.166 84.0993 86.118 84.0558C86.0699 84.0124 86.0397 83.9526 86.0332 83.8881C86.0267 83.8236 86.0444 83.7589 86.0828 83.7067C86.1211 83.6545 86.1775 83.6185 86.2409 83.6056C87.0876 83.4292 87.9347 83.2422 88.7822 83.0446C88.816 83.0353 88.8513 83.033 88.886 83.0378C88.9208 83.0425 88.9542 83.0542 88.9843 83.0722C89.0144 83.0902 89.0406 83.114 89.0613 83.1424C89.082 83.1707 89.0968 83.203 89.1048 83.2372C89.1128 83.2713 89.1138 83.3068 89.1078 83.3414C89.1019 83.376 89.089 83.409 89.07 83.4386C89.051 83.4681 89.0262 83.4934 88.9972 83.5132C88.9682 83.5329 88.9355 83.5465 88.9011 83.5533C88.0492 83.7534 87.1977 83.9416 86.3468 84.118C86.3291 84.1215 86.3111 84.1233 86.2931 84.1232ZM0.261298 161.586C0.253806 161.586 0.246317 161.586 0.23886 161.585C0.169952 161.579 0.106184 161.546 0.0615662 161.493C0.0169486 161.441 -0.00486624 161.372 0.000913518 161.303C0.0750114 160.423 0.16111 159.545 0.256602 158.692C0.264352 158.623 0.299108 158.56 0.353224 158.517C0.407341 158.474 0.476385 158.454 0.545167 158.462C0.613949 158.469 0.676835 158.504 0.719991 158.558C0.763147 158.613 0.783037 158.682 0.775287 158.751C0.678234 159.615 0.593344 160.48 0.520641 161.347C0.515157 161.412 0.485477 161.473 0.437463 161.517C0.389449 161.562 0.32659 161.586 0.261298 161.586ZM0.844688 156.388C0.832467 156.388 0.820263 156.388 0.808161 156.386C0.774146 156.381 0.741401 156.37 0.711804 156.352C0.682207 156.335 0.656341 156.312 0.635688 156.284C0.615036 156.257 0.600003 156.225 0.591454 156.192C0.582905 156.159 0.581007 156.124 0.585868 156.09C0.709017 155.222 0.84469 154.35 0.990798 153.499C0.996344 153.465 1.00859 153.433 1.02682 153.403C1.04504 153.374 1.06889 153.349 1.09697 153.329C1.12504 153.309 1.15679 153.295 1.19034 153.288C1.2239 153.28 1.25859 153.28 1.29241 153.286C1.36055 153.298 1.42124 153.336 1.46116 153.392C1.50108 153.449 1.51696 153.519 1.50531 153.587C1.35849 154.444 1.22436 155.303 1.10299 156.164C1.09419 156.226 1.06321 156.283 1.01575 156.324C0.968297 156.366 0.90755 156.388 0.844688 156.388ZM1.72864 151.234C1.71112 151.234 1.69363 151.232 1.67646 151.229C1.64284 151.222 1.61088 151.209 1.58242 151.189C1.55395 151.17 1.52955 151.146 1.5106 151.117C1.49165 151.088 1.47852 151.056 1.47197 151.022C1.46542 150.989 1.46558 150.954 1.47243 150.92C1.6462 150.059 1.83353 149.196 2.03026 148.358C2.03702 148.323 2.05065 148.29 2.07032 148.261C2.09 148.232 2.11532 148.208 2.14477 148.189C2.17421 148.169 2.20719 148.157 2.24173 148.151C2.27626 148.145 2.31165 148.146 2.34578 148.154C2.37991 148.162 2.41207 148.176 2.44035 148.197C2.46864 148.218 2.49246 148.244 2.5104 148.274C2.52834 148.305 2.54003 148.338 2.54477 148.373C2.5495 148.408 2.5472 148.443 2.53798 148.477C2.34334 149.311 2.15706 150.167 1.98381 151.024C1.97178 151.083 1.93976 151.136 1.89317 151.175C1.84658 151.213 1.78827 151.233 1.72812 151.233L1.72864 151.234ZM2.91578 146.142C2.89306 146.142 2.87044 146.139 2.84846 146.133C2.7817 146.115 2.72478 146.072 2.69016 146.012C2.65554 145.952 2.64604 145.88 2.66374 145.813C2.89021 144.958 3.13024 144.109 3.37654 143.289C3.38546 143.255 3.40111 143.223 3.42256 143.195C3.44401 143.168 3.47081 143.145 3.50137 143.127C3.53193 143.11 3.56562 143.099 3.60044 143.096C3.63526 143.092 3.67049 143.095 3.70403 143.105C3.73757 143.115 3.76873 143.132 3.79566 143.155C3.8226 143.177 3.84474 143.205 3.86078 143.236C3.87682 143.267 3.88643 143.301 3.88903 143.336C3.89163 143.371 3.88717 143.406 3.87592 143.44C3.6268 144.272 3.39091 145.108 3.16834 145.948C3.15358 146.004 3.12081 146.053 3.07512 146.088C3.02943 146.123 2.9734 146.142 2.91578 146.142ZM4.41339 141.133C4.37196 141.133 4.33112 141.123 4.29422 141.105C4.25733 141.086 4.22546 141.058 4.20123 141.025C4.17701 140.991 4.16114 140.952 4.15493 140.911C4.14872 140.87 4.15235 140.828 4.16553 140.789C4.44214 139.959 4.73178 139.134 5.03435 138.314C5.04522 138.281 5.06273 138.25 5.08583 138.223C5.10893 138.197 5.13714 138.175 5.16878 138.16C5.20041 138.145 5.23482 138.136 5.26992 138.134C5.30503 138.132 5.34012 138.138 5.37308 138.15C5.40604 138.162 5.43619 138.181 5.46173 138.205C5.48727 138.229 5.50766 138.259 5.52169 138.291C5.53572 138.323 5.54309 138.358 5.54337 138.393C5.54364 138.428 5.53682 138.463 5.52329 138.496C5.22284 139.311 4.93528 140.13 4.66073 140.954C4.64325 141.006 4.60992 141.051 4.56545 141.083C4.52098 141.115 4.46761 141.133 4.41287 141.133L4.41339 141.133ZM6.22357 136.23C6.18988 136.23 6.15655 136.223 6.12547 136.21C6.06142 136.184 6.01033 136.133 5.98342 136.069C5.95651 136.006 5.95599 135.934 5.98197 135.869C6.31129 135.06 6.65399 134.255 7.00995 133.457C7.02294 133.424 7.04242 133.394 7.06721 133.369C7.092 133.344 7.12159 133.324 7.1542 133.311C7.1868 133.298 7.22175 133.291 7.25694 133.292C7.29212 133.293 7.32683 133.3 7.35895 133.315C7.39107 133.329 7.41996 133.35 7.44387 133.376C7.46777 133.402 7.48621 133.432 7.49806 133.465C7.50992 133.499 7.51495 133.534 7.51285 133.569C7.51075 133.604 7.50156 133.639 7.48584 133.67C7.13249 134.463 6.79222 135.262 6.46517 136.066C6.44565 136.115 6.41225 136.156 6.36921 136.185C6.32617 136.214 6.27547 136.23 6.22357 136.23ZM8.35101 131.456C8.30667 131.456 8.26304 131.445 8.22424 131.423C8.18544 131.402 8.15274 131.371 8.12924 131.333C8.10574 131.295 8.09221 131.252 8.08993 131.208C8.08764 131.163 8.09668 131.119 8.11619 131.079C8.49866 130.293 8.89426 129.514 9.3028 128.741C9.3181 128.709 9.33959 128.681 9.36599 128.658C9.3924 128.635 9.42318 128.618 9.45649 128.607C9.48981 128.596 9.52498 128.592 9.5599 128.595C9.59482 128.598 9.62878 128.608 9.65975 128.624C9.69072 128.641 9.71807 128.663 9.74016 128.69C9.76225 128.718 9.77862 128.749 9.78831 128.783C9.798 128.817 9.8008 128.852 9.79655 128.887C9.7923 128.922 9.78108 128.955 9.76357 128.986C9.35806 129.753 8.96525 130.528 8.58531 131.308C8.56395 131.352 8.53065 131.39 8.48922 131.416C8.44779 131.442 8.39989 131.455 8.35101 131.455V131.456ZM10.7942 126.836C10.7483 126.836 10.7033 126.824 10.6635 126.801C10.6238 126.778 10.5908 126.745 10.5678 126.706C10.5449 126.666 10.5328 126.621 10.5327 126.575C10.5327 126.529 10.5448 126.484 10.5677 126.444C11.0008 125.69 11.4527 124.932 11.9103 124.193C11.9284 124.164 11.952 124.139 11.9798 124.119C12.0076 124.099 12.0391 124.084 12.0725 124.076C12.1059 124.068 12.1404 124.067 12.1743 124.073C12.2081 124.078 12.2405 124.091 12.2696 124.109C12.2987 124.127 12.324 124.15 12.344 124.178C12.364 124.206 12.3783 124.238 12.3861 124.271C12.394 124.305 12.3951 124.339 12.3896 124.373C12.3841 124.407 12.3719 124.439 12.3539 124.469C11.8966 125.206 11.4519 125.952 11.0201 126.705C10.9972 126.745 10.9643 126.778 10.9246 126.801C10.8849 126.824 10.84 126.836 10.7942 126.836V126.836ZM13.5473 122.396C13.4955 122.396 13.445 122.381 13.4022 122.352C13.3737 122.332 13.3493 122.308 13.3303 122.279C13.3113 122.251 13.2981 122.219 13.2914 122.185C13.2848 122.152 13.2849 122.117 13.2916 122.083C13.2983 122.05 13.3116 122.018 13.3307 121.989C13.8167 121.263 14.3153 120.545 14.8262 119.837C14.846 119.808 14.8712 119.783 14.9005 119.765C14.9298 119.746 14.9625 119.733 14.9968 119.727C15.031 119.721 15.0661 119.722 15.1 119.73C15.1338 119.738 15.1658 119.753 15.1939 119.773C15.2221 119.794 15.2459 119.819 15.2639 119.849C15.282 119.879 15.2939 119.912 15.2991 119.946C15.3042 119.981 15.3024 120.016 15.2938 120.05C15.2852 120.083 15.2699 120.115 15.2489 120.143C14.7417 120.847 14.2466 121.559 13.7638 122.28C13.7399 122.316 13.7077 122.345 13.6699 122.365C13.6322 122.385 13.59 122.396 13.5473 122.396ZM16.603 118.159C16.5541 118.159 16.5063 118.145 16.4648 118.12C16.4233 118.094 16.39 118.057 16.3685 118.013C16.347 117.969 16.3383 117.92 16.3433 117.871C16.3483 117.822 16.3669 117.776 16.3969 117.737L16.5863 117.494C16.8911 117.105 17.3732 116.495 18.0495 115.698C18.0949 115.647 18.1582 115.616 18.226 115.612C18.2938 115.607 18.3607 115.629 18.4125 115.673C18.4644 115.717 18.497 115.78 18.5034 115.848C18.5099 115.916 18.4897 115.983 18.4471 116.036C17.952 116.62 17.4687 117.213 16.9975 117.816L16.8086 118.059C16.7842 118.09 16.753 118.115 16.7174 118.133C16.6817 118.15 16.6426 118.159 16.603 118.159ZM19.9771 114.17C19.9264 114.17 19.8769 114.155 19.8346 114.127C19.7922 114.099 19.7588 114.06 19.7384 114.013C19.7181 113.967 19.7116 113.915 19.7199 113.865C19.7282 113.815 19.7508 113.769 19.785 113.731C20.376 113.087 20.9779 112.454 21.5905 111.83C21.6144 111.805 21.6431 111.785 21.6748 111.771C21.7065 111.757 21.7407 111.75 21.7753 111.749C21.8099 111.749 21.8443 111.755 21.8764 111.768C21.9085 111.781 21.9377 111.8 21.9624 111.825C21.987 111.849 22.0066 111.878 22.0199 111.91C22.0333 111.942 22.0401 111.976 22.0401 112.011C22.0401 112.046 22.0332 112.08 22.0198 112.112C22.0064 112.144 21.9867 112.173 21.9621 112.197C21.3463 112.825 20.7426 113.46 20.1696 114.085C20.1452 114.112 20.1155 114.133 20.0823 114.148C20.0492 114.163 20.0133 114.17 19.9771 114.17V114.17ZM23.6371 110.442C23.5851 110.441 23.5342 110.426 23.4912 110.396C23.4481 110.367 23.4147 110.326 23.3954 110.277C23.376 110.229 23.3716 110.176 23.3826 110.125C23.3935 110.074 23.4195 110.027 23.4571 109.991C24.0886 109.388 24.7293 108.795 25.3789 108.211C25.4306 108.166 25.4979 108.143 25.5662 108.147C25.6346 108.151 25.6986 108.182 25.7443 108.234C25.7901 108.285 25.814 108.352 25.8108 108.42C25.8077 108.489 25.7777 108.553 25.7275 108.6C25.082 109.18 24.4451 109.77 23.8171 110.37C23.7686 110.416 23.7041 110.442 23.6371 110.442V110.442ZM27.521 106.95C27.4676 106.95 27.4155 106.933 27.3718 106.903C27.3281 106.872 27.2948 106.829 27.2764 106.778C27.258 106.728 27.2555 106.673 27.2691 106.622C27.2827 106.57 27.3118 106.524 27.3524 106.489C28.0188 105.925 28.6932 105.37 29.3755 104.825C29.4297 104.783 29.4981 104.764 29.566 104.773C29.6338 104.781 29.6957 104.816 29.7383 104.869C29.7809 104.923 29.8008 104.991 29.7938 105.059C29.7867 105.127 29.7533 105.19 29.7006 105.234C29.0224 105.775 28.3522 106.327 27.69 106.888C27.6428 106.928 27.5828 106.95 27.521 106.95ZM31.6 103.689C31.5452 103.689 31.4919 103.671 31.4474 103.639C31.403 103.607 31.3698 103.562 31.3525 103.51C31.3352 103.458 31.3346 103.402 31.351 103.349C31.3673 103.297 31.3996 103.251 31.4435 103.218C32.1401 102.693 32.8437 102.177 33.5542 101.67C33.6106 101.633 33.6794 101.619 33.7461 101.631C33.8127 101.643 33.872 101.681 33.9113 101.736C33.9506 101.792 33.9669 101.86 33.9568 101.927C33.9466 101.994 33.9108 102.055 33.8569 102.096C33.1501 102.6 32.4501 103.113 31.7571 103.636C31.7118 103.67 31.6566 103.689 31.6 103.689ZM35.8518 100.659C35.7959 100.658 35.7415 100.64 35.6967 100.607C35.6518 100.574 35.6188 100.527 35.6026 100.473C35.5863 100.42 35.5877 100.362 35.6064 100.309C35.6252 100.257 35.6603 100.211 35.7067 100.18C36.1109 99.9083 36.5214 99.6364 36.9382 99.3645C37.2593 99.1557 37.5793 98.9502 37.8983 98.748C37.9273 98.7297 37.9596 98.7172 37.9934 98.7114C38.0272 98.7056 38.0618 98.7065 38.0952 98.7141C38.1286 98.7216 38.1603 98.7357 38.1883 98.7556C38.2162 98.7754 38.2401 98.8005 38.2584 98.8296C38.2767 98.8586 38.2891 98.891 38.2949 98.9248C38.3007 98.9587 38.2998 98.9934 38.2922 99.0269C38.2847 99.0604 38.2706 99.092 38.2508 99.1201C38.2311 99.1481 38.206 99.172 38.177 99.1904C37.8597 99.3908 37.5416 99.5951 37.2226 99.8032C36.8079 100.073 36.3995 100.343 35.9973 100.614C35.9545 100.643 35.9037 100.659 35.8518 100.659ZM40.2611 97.8628C40.2039 97.8628 40.1484 97.8439 40.1029 97.8092C40.0575 97.7745 40.0247 97.7257 40.0096 97.6705C39.9944 97.6152 39.9978 97.5566 40.0193 97.5034C40.0407 97.4503 40.0789 97.4057 40.128 97.3765C40.8831 96.9268 41.6465 96.4876 42.3964 96.0693C42.4264 96.0526 42.4593 96.042 42.4934 96.038C42.5275 96.0341 42.562 96.0369 42.595 96.0463C42.628 96.0557 42.6588 96.0716 42.6857 96.0929C42.7126 96.1143 42.735 96.1407 42.7517 96.1708C42.7684 96.2008 42.779 96.2338 42.783 96.268C42.7869 96.3021 42.7841 96.3367 42.7747 96.3698C42.7653 96.4029 42.7495 96.4338 42.7282 96.4607C42.7069 96.4876 42.6805 96.5101 42.6505 96.5268C41.9043 96.9415 41.1456 97.3791 40.3947 97.8262C40.3544 97.8502 40.3085 97.8628 40.2616 97.8628H40.2611ZM44.8218 95.3253C44.7634 95.3252 44.7067 95.3054 44.6608 95.2692C44.6149 95.233 44.5825 95.1824 44.5687 95.1255C44.5549 95.0686 44.5606 95.0087 44.5848 94.9554C44.609 94.9022 44.6504 94.8586 44.7023 94.8317C45.4778 94.4308 46.2596 94.042 47.0473 93.6657C47.0784 93.6493 47.1125 93.6394 47.1475 93.6366C47.1825 93.6337 47.2177 93.638 47.251 93.6491C47.2843 93.6602 47.315 93.6779 47.3414 93.7012C47.3677 93.7245 47.389 93.7529 47.4041 93.7846C47.4192 93.8164 47.4278 93.8509 47.4293 93.886C47.4308 93.9212 47.4252 93.9563 47.4128 93.9892C47.4004 94.0221 47.3816 94.0522 47.3573 94.0777C47.3331 94.1031 47.304 94.1234 47.2717 94.1373C46.4891 94.5113 45.7124 94.8976 44.9418 95.296C44.9047 95.3152 44.8635 95.3252 44.8218 95.3253Z" fill="#F8FAFC"/>
<path d="M19.6982 146.556H48.9914V149.904H19.6982V146.556Z" fill="#CBD5E1"/>
<path d="M152.764 82.0352H182.057V85.3836H152.764V82.0352Z" fill="#F8FAFC"/>
<path d="M49.5176 17.0088H78.8108V20.3573H49.5176V17.0088Z" fill="#334155"/>
<path d="M128.449 101.005C127.975 101.005 127.511 100.864 127.117 100.6C126.723 100.336 126.416 99.9613 126.234 99.5224C126.053 99.0836 126.005 98.6007 126.098 98.1348C126.19 97.6689 126.419 97.2409 126.754 96.905C127.089 96.5691 127.516 96.3404 127.981 96.2477C128.446 96.1551 128.928 96.2027 129.366 96.3845C129.804 96.5663 130.178 96.8742 130.441 97.2692C130.705 97.6643 130.845 98.1286 130.845 98.6037C130.844 99.2402 130.592 99.8504 130.142 100.301C129.693 100.751 129.084 101.004 128.449 101.005ZM128.449 96.725C128.078 96.7249 127.716 96.835 127.407 97.0413C127.099 97.2477 126.858 97.5411 126.716 97.8844C126.574 98.2276 126.537 98.6054 126.61 98.9699C126.682 99.3343 126.86 99.6691 127.123 99.9319C127.385 100.195 127.719 100.374 128.082 100.446C128.446 100.519 128.823 100.482 129.166 100.339C129.508 100.197 129.801 99.9564 130.007 99.6475C130.213 99.3385 130.323 98.9753 130.323 98.6037C130.323 98.1057 130.125 97.6282 129.774 97.276C129.422 96.9238 128.946 96.7257 128.449 96.725ZM177.439 58.2562C176.965 58.2562 176.501 58.1154 176.107 57.8516C175.713 57.5878 175.406 57.2128 175.225 56.7741C175.044 56.3354 174.996 55.8526 175.088 55.3869C175.181 54.9212 175.409 54.4933 175.744 54.1575C176.079 53.8217 176.506 53.593 176.971 53.5003C177.436 53.4076 177.917 53.4551 178.355 53.6367C178.793 53.8184 179.167 54.126 179.431 54.5208C179.694 54.9156 179.835 55.3798 179.835 55.8546C179.834 56.4913 179.581 57.1018 179.132 57.552C178.683 58.0022 178.074 58.2555 177.438 58.2562H177.439ZM177.439 53.9765C177.068 53.9765 176.706 54.0866 176.397 54.293C176.089 54.4994 175.849 54.7927 175.707 55.1359C175.565 55.4791 175.528 55.8567 175.6 56.221C175.673 56.5853 175.851 56.92 176.113 57.1827C176.375 57.4453 176.709 57.6242 177.073 57.6967C177.437 57.7692 177.813 57.732 178.156 57.5898C178.498 57.4477 178.791 57.2069 178.997 56.8981C179.203 56.5892 179.313 56.2261 179.313 55.8546C179.312 55.3566 179.115 54.8791 178.763 54.527C178.412 54.1749 177.935 53.9769 177.438 53.9765H177.439Z" fill="#F8FAFC"/>
<path d="M20.6879 82.2439L16.8682 81.1981L19.6442 77.8936L20.6879 82.2439Z" fill="#334155"/>
<path d="M216.001 96.0084L212.181 94.9627L214.957 91.6581L216.001 96.0084ZM83.4877 60.1696L79.668 59.1239L82.444 55.8193L83.4877 60.1696Z" fill="#CBD5E1"/>
<path d="M192.834 28.7771L189.015 27.7313L191.791 24.4268L192.834 28.7771Z" fill="#F8FAFC"/>
<path d="M99.305 16.9382L95.4854 15.8924L98.2614 12.5879L99.305 16.9382Z" fill="#10B981"/>
</svg>
