<svg width="36" height="36" viewBox="0 0 36 36" fill="none" xmlns="http://www.w3.org/2000/svg">
<path d="M35.7188 18C35.7188 23.85 30.9938 28.6313 25.0875 28.6313C19.2375 28.6313 14.4563 23.85 14.4563 18C14.4563 12.15 19.1813 7.36876 25.0313 7.36876C30.9938 7.36876 35.7188 12.15 35.7188 18Z" fill="#334155"/>
<path d="M25.0875 7.36876C30.9375 7.36876 35.7188 12.15 35.7188 18C35.7188 23.85 30.9938 28.6313 25.0875 28.6313C19.2375 28.6313 14.4563 23.85 14.4563 18" fill="#334155"/>
<path d="M25.0875 7.36876C30.9375 7.36876 35.7188 12.15 35.7188 18C35.7188 23.85 30.9938 28.6313 25.0875 28.6313" fill="#334155"/>
<path d="M10.8 7.36876C5.00625 7.42501 0.28125 12.15 0.28125 18C0.28125 23.85 5.00625 28.6313 10.9125 28.6313C13.6687 28.6313 16.1437 27.5625 18.0562 25.875C18.45 25.5375 18.7875 25.1438 19.125 24.75H16.9312C16.65 24.4125 16.3687 24.0188 16.1438 23.6813H19.9125C20.1375 23.3438 20.3625 22.95 20.5312 22.5563H15.525C15.3562 22.2188 15.1875 21.825 15.075 21.4313H20.925C21.2625 20.3625 21.4875 19.2375 21.4875 18.0563C21.4875 17.2688 21.375 16.5375 21.2625 15.8063H14.7375C14.7938 15.4125 14.9062 15.075 15.0188 14.6813H20.8687C20.7562 14.2875 20.5875 13.8938 20.4187 13.5563H15.4688C15.6375 13.1625 15.8625 12.825 16.0875 12.4313H19.8562C19.6313 12.0375 19.35 11.6438 19.0125 11.3063H16.9312C17.2688 10.9125 17.6063 10.575 18 10.2375C16.1438 8.49376 13.6125 7.48126 10.8562 7.48126C10.8562 7.36876 10.8563 7.36876 10.8 7.36876Z" fill="#94A3B8"/>
<path d="M0.28125 18C0.28125 23.85 5.00625 28.6313 10.9125 28.6313C13.6687 28.6313 16.1437 27.5625 18.0562 25.875C18.45 25.5375 18.7875 25.1438 19.125 24.75H16.9312C16.65 24.4125 16.3687 24.0188 16.1438 23.6813H19.9125C20.1375 23.3438 20.3625 22.95 20.5312 22.5563H15.525C15.3562 22.2188 15.1875 21.825 15.075 21.4313H20.925C21.2625 20.3625 21.4875 19.2375 21.4875 18.0563C21.4875 17.2688 21.375 16.5375 21.2625 15.8063H14.7375C14.7938 15.4125 14.9062 15.075 15.0188 14.6813H20.8687C20.7562 14.2875 20.5875 13.8938 20.4187 13.5563H15.4688C15.6375 13.1625 15.8625 12.825 16.0875 12.4313H19.8562C19.6313 12.0375 19.35 11.6438 19.0125 11.3063H16.9312C17.2688 10.9125 17.6063 10.575 18 10.2375C16.1438 8.49375 13.6125 7.48125 10.8562 7.48125H10.8" fill="#94A3B8"/>
<path d="M10.9125 28.6313C13.6688 28.6313 16.1438 27.5625 18.0563 25.875C18.45 25.5375 18.7875 25.1438 19.125 24.75H16.9313C16.65 24.4125 16.3688 24.0188 16.1438 23.6813H19.9125C20.1375 23.3438 20.3625 22.95 20.5313 22.5563H15.525C15.3563 22.2188 15.1875 21.825 15.075 21.4313H20.925C21.2625 20.3625 21.4875 19.2375 21.4875 18.0563C21.4875 17.2688 21.375 16.5375 21.2625 15.8063H14.7375C14.7938 15.4125 14.9063 15.075 15.0188 14.6813H20.8688C20.7563 14.2875 20.5875 13.8938 20.4188 13.5563H15.4688C15.6375 13.1625 15.8625 12.825 16.0875 12.4313H19.8563C19.6313 12.0375 19.35 11.6438 19.0125 11.3063H16.9313C17.2688 10.9125 17.6063 10.575 18 10.2375C16.1438 8.49375 13.6125 7.48125 10.8563 7.48125H10.8" fill="#94A3B8"/>
<path d="M14.6812 20.7L14.85 19.7438C14.7937 19.7438 14.6812 19.8 14.5687 19.8C14.175 19.8 14.1187 19.575 14.175 19.4625L14.5125 17.4938H15.1312L15.3 16.425H14.7375L14.85 15.75H13.725C13.725 15.75 13.05 19.4625 13.05 19.9125C13.05 20.5875 13.4437 20.8688 13.95 20.8688C14.2875 20.8688 14.5687 20.7563 14.6812 20.7ZM15.075 18.9C15.075 20.475 16.1437 20.8688 17.0437 20.8688C17.8875 20.8688 18.225 20.7 18.225 20.7L18.45 19.6313C18.45 19.6313 17.8312 19.9125 17.2687 19.9125C16.0312 19.9125 16.2562 19.0125 16.2562 19.0125H18.5625C18.5625 19.0125 18.7312 18.2813 18.7312 18C18.7312 17.2688 18.3375 16.3688 17.1 16.3688C15.9187 16.2563 15.075 17.4938 15.075 18.9ZM17.0437 17.2688C17.6625 17.2688 17.55 18 17.55 18.0563H16.3125C16.3125 18 16.425 17.2688 17.0437 17.2688ZM24.1875 20.7L24.4125 19.4625C24.4125 19.4625 23.85 19.7438 23.4562 19.7438C22.6687 19.7438 22.3312 19.125 22.3312 18.45C22.3312 17.1 23.0062 16.3688 23.7937 16.3688C24.3562 16.3688 24.8062 16.7063 24.8062 16.7063L24.975 15.525C24.975 15.525 24.3 15.2438 23.6812 15.2438C22.3875 15.2438 21.0937 16.3688 21.0937 18.5063C21.0937 19.9125 21.7687 20.8688 23.1187 20.8688C23.5687 20.8688 24.1875 20.7 24.1875 20.7ZM8.4937 16.2563C7.7062 16.2563 7.1437 16.4813 7.1437 16.4813L6.97495 17.4375C6.97495 17.4375 7.4812 17.2125 8.21245 17.2125C8.6062 17.2125 8.9437 17.2688 8.9437 17.6063C8.9437 17.8313 8.88745 17.8875 8.88745 17.8875H8.3812C7.42495 17.8875 6.3562 18.2813 6.3562 19.575C6.3562 20.5875 7.0312 20.8125 7.42495 20.8125C8.21245 20.8125 8.54995 20.3063 8.6062 20.3063L8.54995 20.7563H9.56245L10.0125 17.6625C10.0125 16.3125 8.88745 16.2563 8.4937 16.2563ZM8.7187 18.7875C8.7187 18.9563 8.6062 19.8563 7.9312 19.8563C7.5937 19.8563 7.4812 19.575 7.4812 19.4063C7.4812 19.125 7.64995 18.7313 8.4937 18.7313C8.66245 18.7875 8.7187 18.7875 8.7187 18.7875ZM11.0812 20.8125C11.3625 20.8125 12.7687 20.8688 12.7687 19.35C12.7687 17.9438 11.4187 18.225 11.4187 17.6625C11.4187 17.3813 11.6437 17.2688 12.0375 17.2688C12.2062 17.2688 12.825 17.325 12.825 17.325L12.9937 16.3125C12.9937 16.3125 12.6 16.2 11.925 16.2C11.0812 16.2 10.2375 16.5375 10.2375 17.6625C10.2375 18.9563 11.6437 18.8438 11.6437 19.35C11.6437 19.6875 11.25 19.7438 10.9687 19.7438C10.4625 19.7438 9.9562 19.575 9.9562 19.575L9.78745 20.5875C9.8437 20.7 10.125 20.8125 11.0812 20.8125ZM33.525 15.3563L33.3 16.875C33.3 16.875 32.85 16.3125 32.2312 16.3125C31.2187 16.3125 30.3187 17.55 30.3187 19.0125C30.3187 19.9125 30.7687 20.8688 31.725 20.8688C32.4 20.8688 32.7937 20.4188 32.7937 20.4188L32.7375 20.8125H33.8625L34.7062 15.4125L33.525 15.3563ZM33.0187 18.3375C33.0187 18.9563 32.7375 19.7438 32.1187 19.7438C31.725 19.7438 31.5 19.4063 31.5 18.8438C31.5 17.9438 31.8937 17.3813 32.4 17.3813C32.7937 17.3813 33.0187 17.6625 33.0187 18.3375ZM2.36245 20.7563L3.03745 16.7063L3.14995 20.7563H3.93745L5.39995 16.7063L4.7812 20.7563H5.96245L6.86245 15.3563H5.0062L3.8812 18.675L3.82495 15.3563H2.1937L1.2937 20.7563H2.36245ZM19.8 20.7563C20.1375 18.9 20.1937 17.3813 20.9812 17.6625C21.0937 16.9313 21.2625 16.65 21.375 16.3688H21.15C20.6437 16.3688 20.25 17.0438 20.25 17.0438L20.3625 16.425H19.2937L18.5625 20.8125H19.8V20.7563ZM26.775 16.2563C25.9875 16.2563 25.425 16.4813 25.425 16.4813L25.2562 17.4375C25.2562 17.4375 25.7625 17.2125 26.4937 17.2125C26.8875 17.2125 27.225 17.2688 27.225 17.6063C27.225 17.8313 27.1687 17.8875 27.1687 17.8875H26.6625C25.7062 17.8875 24.6375 18.2813 24.6375 19.575C24.6375 20.5875 25.3125 20.8125 25.7062 20.8125C26.4937 20.8125 26.8312 20.3063 26.8875 20.3063L26.8312 20.7563H27.8437L28.2937 17.6625C28.35 16.3125 27.1687 16.2563 26.775 16.2563ZM27.0562 18.7875C27.0562 18.9563 26.9437 19.8563 26.2687 19.8563C25.9312 19.8563 25.8187 19.575 25.8187 19.4063C25.8187 19.125 25.9875 18.7313 26.8312 18.7313C27 18.7875 27 18.7875 27.0562 18.7875ZM29.25 20.7563C29.5875 18.9 29.6437 17.3813 30.4312 17.6625C30.5437 16.9313 30.7125 16.65 30.825 16.3688H30.6C30.0937 16.3688 29.7 17.0438 29.7 17.0438L29.8125 16.425H28.7437L28.0125 20.8125H29.25V20.7563Z" fill="#F8FAFC"/>
<path d="M12.9375 19.9125C12.9375 20.5875 13.3312 20.8688 13.8375 20.8688C14.2312 20.8688 14.5687 20.7563 14.6812 20.7L14.85 19.7438C14.7937 19.7438 14.6812 19.8 14.5687 19.8C14.175 19.8 14.1187 19.575 14.175 19.4625L14.5125 17.4938H15.1312L15.3 16.425H14.7375L14.85 15.75M15.6375 18.9C15.6375 20.475 16.1437 20.8688 17.0437 20.8688C17.8875 20.8688 18.225 20.7 18.225 20.7L18.45 19.6313C18.45 19.6313 17.8312 19.9125 17.2687 19.9125C16.0312 19.9125 16.2562 19.0125 16.2562 19.0125H18.5625C18.5625 19.0125 18.7312 18.2813 18.7312 18C18.7312 17.2688 18.3375 16.3688 17.1 16.3688C15.9187 16.2563 15.6375 17.4938 15.6375 18.9ZM17.0437 17.2688C17.6625 17.2688 17.775 18 17.775 18.0563H16.3125C16.3125 18 16.425 17.2688 17.0437 17.2688ZM24.1875 20.7L24.4125 19.4625C24.4125 19.4625 23.85 19.7438 23.4562 19.7438C22.6687 19.7438 22.3312 19.125 22.3312 18.45C22.3312 17.1 23.0062 16.3688 23.7937 16.3688C24.3562 16.3688 24.8062 16.7063 24.8062 16.7063L24.975 15.525C24.975 15.525 24.3 15.2438 23.6812 15.2438C22.3875 15.2438 21.6562 16.3688 21.6562 18.5063C21.6562 19.9125 21.7687 20.8688 23.1187 20.8688C23.5687 20.8688 24.1875 20.7 24.1875 20.7ZM6.97495 17.4938C6.97495 17.4938 7.4812 17.2688 8.21245 17.2688C8.6062 17.2688 8.9437 17.325 8.9437 17.6625C8.9437 17.8875 8.88745 17.9438 8.88745 17.9438H8.3812C7.42495 17.9438 6.3562 18.3375 6.3562 19.6313C6.3562 20.6438 7.0312 20.8688 7.42495 20.8688C8.21245 20.8688 8.54995 20.3625 8.6062 20.3625L8.54995 20.8125H9.56245L10.0125 17.7188C10.0125 16.425 8.88745 16.3688 8.43745 16.3688M9.2812 18.7875C9.2812 18.9563 8.6062 19.8563 7.9312 19.8563C7.5937 19.8563 7.4812 19.575 7.4812 19.4063C7.4812 19.125 7.64995 18.7313 8.4937 18.7313C8.66245 18.7875 9.2812 18.7875 9.2812 18.7875ZM9.8437 20.7C9.8437 20.7 10.1812 20.8125 11.1375 20.8125C11.4187 20.8125 12.825 20.8688 12.825 19.35C12.825 17.9438 11.475 18.225 11.475 17.6625C11.475 17.3813 11.7 17.2688 12.0937 17.2688C12.2625 17.2688 12.8812 17.325 12.8812 17.325L13.05 16.3125C13.05 16.3125 12.6562 16.2 11.9812 16.2C11.1375 16.2 10.8562 16.5375 10.8562 17.6625C10.8562 18.9563 11.7 18.8438 11.7 19.35C11.7 19.6875 11.3062 19.7438 11.025 19.7438M33.3 16.875C33.3 16.875 32.85 16.3125 32.2312 16.3125C31.2187 16.3125 30.8812 17.55 30.8812 19.0125C30.8812 19.9125 30.7687 20.8688 31.725 20.8688C32.4 20.8688 32.7937 20.4188 32.7937 20.4188L32.7375 20.8125H33.8625L34.7062 15.4125M33.2437 18.3375C33.2437 18.9563 32.7375 19.7438 32.1187 19.7438C31.725 19.7438 31.5 19.4063 31.5 18.8438C31.5 17.9438 31.8937 17.3813 32.4 17.3813C32.7937 17.3813 33.2437 17.6625 33.2437 18.3375ZM2.36245 20.7563L3.03745 16.7063L3.14995 20.7563H3.93745L5.39995 16.7063L4.7812 20.7563H5.96245L6.86245 15.3563H5.4562L3.8812 18.675L3.82495 15.3563H3.2062L1.2937 20.7563H2.36245ZM18.6187 20.7563H19.8C20.1375 18.9 20.1937 17.3813 20.9812 17.6625C21.0937 16.9313 21.2625 16.65 21.375 16.3688H21.15C20.6437 16.3688 20.25 17.0438 20.25 17.0438L20.3625 16.425M25.2562 17.4938C25.2562 17.4938 25.7625 17.2688 26.4937 17.2688C26.8875 17.2688 27.225 17.325 27.225 17.6625C27.225 17.8875 27.1687 17.9438 27.1687 17.9438H26.6625C25.7062 17.9438 24.6375 18.3375 24.6375 19.6313C24.6375 20.6438 25.3125 20.8688 25.7062 20.8688C26.4937 20.8688 26.8312 20.3625 26.8875 20.3625L26.8312 20.8125H27.8437L28.2937 17.7188C28.2937 16.425 27.1687 16.3688 26.7187 16.3688M27.5625 18.7875C27.5625 18.9563 26.8875 19.8563 26.2125 19.8563C25.875 19.8563 25.7625 19.575 25.7625 19.4063C25.7625 19.125 25.9312 18.7313 26.775 18.7313C27 18.7875 27.5625 18.7875 27.5625 18.7875ZM28.0687 20.7563H29.25C29.5875 18.9 29.6437 17.3813 30.4312 17.6625C30.5437 16.9313 30.7125 16.65 30.825 16.3688H30.6C30.0937 16.3688 29.7 17.0438 29.7 17.0438L29.8125 16.425" fill="#F8FAFC"/>
</svg>
