<svg width="36" height="36" viewBox="0 0 36 36" fill="none" xmlns="http://www.w3.org/2000/svg">
<path d="M28.1611 10.6225C28.1323 10.805 28.1011 10.9875 28.0661 11.1688C26.8373 17.4813 22.6298 19.665 17.2573 19.665H14.5198C13.8648 19.665 13.3073 20.1438 13.2073 20.7913L11.8061 29.6725L11.4073 32.1912C11.3916 32.2912 11.3978 32.3934 11.4253 32.4908C11.4529 32.5882 11.5013 32.6784 11.5671 32.7553C11.6329 32.8322 11.7147 32.8938 11.8066 32.9361C11.8986 32.9783 11.9986 33.0001 12.0998 33H16.9523C17.5261 33 18.0148 32.5812 18.1048 32.015L18.1523 31.7675L19.0673 25.9725L19.1248 25.6525C19.1683 25.3778 19.3084 25.1277 19.5199 24.9471C19.7314 24.7665 20.0005 24.6674 20.2786 24.6675H21.0048C25.7048 24.6675 29.3848 22.7588 30.4611 17.235C30.9086 14.9275 30.6773 13 29.4898 11.6475C29.113 11.2278 28.6627 10.8805 28.1611 10.6225Z" fill="#CBD5E1"/>
<path d="M26.8736 10.11C26.682 10.0538 26.4886 10.0042 26.2936 9.96124C26.0893 9.91653 25.8838 9.87776 25.6773 9.84499C24.8796 9.72193 24.0732 9.66299 23.2661 9.66874H15.9573C15.679 9.66818 15.4098 9.76735 15.1983 9.94829C14.9869 10.1292 14.8473 10.38 14.8048 10.655L13.2511 20.505L13.2061 20.7912C13.3061 20.1437 13.8636 19.6662 14.5186 19.665H17.2548C22.6286 19.665 26.8348 17.4825 28.0636 11.1687C28.0998 10.9825 28.1311 10.8012 28.1586 10.6225C27.8336 10.4525 27.4961 10.31 27.1473 10.1962C27.0569 10.1649 26.9656 10.1361 26.8736 10.11Z" fill="#334155"/>
<path d="M14.8048 10.6537C14.8483 10.3793 14.9882 10.1293 15.1994 9.94873C15.4107 9.76818 15.6794 9.6689 15.9573 9.66875H23.2661C24.1311 9.66875 24.9386 9.725 25.6773 9.8425C26.0807 9.90717 26.4798 9.9965 26.8723 10.11C27.3186 10.235 27.7498 10.4075 28.1598 10.6225C28.5261 8.28875 28.1586 6.70125 26.8961 5.26125C25.5061 3.67875 22.9961 3 19.7836 3H10.4598C9.80358 3 9.24483 3.4775 9.14233 4.12625L5.25983 28.7462C5.24176 28.8604 5.24866 28.9772 5.28005 29.0885C5.31145 29.1997 5.36658 29.3029 5.44167 29.3908C5.51675 29.4787 5.61 29.5493 5.71499 29.5977C5.81998 29.6461 5.93421 29.6712 6.04983 29.6712H11.8061L13.2511 20.5012L14.8048 10.6537Z" fill="#94A3B8"/>
</svg>
