<svg width="36" height="36" viewBox="0 0 36 36" fill="none" xmlns="http://www.w3.org/2000/svg">
<g clip-path="url(#clip0_383_22452)">
<path fill-rule="evenodd" clipRule="evenodd" d="M33.5997 6.75H2.4C1.0746 6.75 0 7.81283 0 9.12079V26.8792C0 28.1887 1.0773 29.25 2.4003 29.25H33.6C34.9257 29.25 36.0003 28.1872 36.0003 26.8792V9.12079C36 7.81135 34.9227 6.75 33.5997 6.75Z" fill="#334155"/>
<path fill-rule="evenodd" clipRule="evenodd" d="M24.531 15.6114C25.2009 15.6114 25.7439 15.0857 25.7439 14.4376C25.7439 13.7892 25.2009 13.2632 24.5307 13.2632C23.8617 13.2632 23.3187 13.7892 23.3187 14.4376C23.3187 15.086 23.8617 15.6114 24.5307 15.6114C23.8617 15.6114 24.5307 15.6114 24.5307 15.6114H24.531ZM15.2394 16.245C15.1848 16.3782 14.7906 17.4559 13.8378 18.5726V13.7972L11.2989 14.2834V22.9388H13.8378V20.2633C14.5731 21.3312 14.9364 22.9388 14.9364 22.9388H17.9775C17.6766 21.7279 16.3605 19.4957 16.3605 19.4957C17.5416 18.0456 18.0603 16.5011 18.1428 16.245H15.2394ZM21.9144 16.1547C19.6404 16.2258 18.4857 17.2134 18.4857 19.1771V22.9388H20.9667V19.8711C20.9667 18.6951 21.1257 18.1913 22.5669 18.1433V16.1893C22.3242 16.1393 21.9144 16.1547 21.9144 16.1547ZM7.04042 17.1983C6.72962 17.1785 6.00962 17.1335 6.00962 16.5058C6.00962 15.7485 7.04642 15.7485 7.43522 15.7485C8.11862 15.7485 9.00422 15.9439 9.63632 16.1275C9.63632 16.1275 9.98912 16.2477 10.2891 16.3711L10.317 16.3782V14.3044L10.2789 14.2934C9.53252 14.0406 8.66492 13.7972 7.05632 13.7972C4.28282 13.7972 3.30002 15.3622 3.30002 16.7021C3.30002 17.4748 3.64202 19.2926 6.81842 19.5025C7.08782 19.5185 7.80242 19.5581 7.80242 20.2071C7.80242 20.7423 7.21742 21.0579 6.23342 21.0579C5.15492 21.0579 4.10882 20.7915 3.47342 20.5392V22.6753C4.42442 22.9168 5.49692 23.0373 6.75362 23.0373C9.46562 23.0373 10.68 21.5571 10.68 20.0901C10.68 18.4269 9.32102 17.3463 7.04072 17.1983C7.04072 17.1983 9.32072 17.3463 7.04072 17.1983H7.04042ZM23.301 22.9388H25.7619V16.2527H23.301V22.9388ZM30.3957 14.2236V22.9388H32.8569V13.7972L30.3957 14.2236ZM26.8044 14.2236L29.2632 13.7972V22.9388H26.8044V14.2236Z" fill="#F8FAFC"/>
</g>
<defs>
<clipPath id="clip0_383_22452">
<rect width="36" height="36" fill="white"/>
</clipPath>
</defs>
</svg>
