<svg width="36" height="36" viewBox="0 0 36 36" fill="none" xmlns="http://www.w3.org/2000/svg">
<path d="M15.8058 23.2775H13.1131L14.796 12.9348H17.489L15.8058 23.2775ZM10.8478 12.9348L8.28066 20.0486L7.97689 18.5167L7.97716 18.5173L7.0711 13.866C7.0711 13.866 6.96154 12.9348 5.79376 12.9348H1.5498L1.5 13.1099C1.5 13.1099 2.79781 13.38 4.31667 14.2921L6.65611 23.2777H9.46172L13.7458 12.9348H10.8478ZM32.0275 23.2775H34.5L32.3443 12.9345H30.1797C29.1801 12.9345 28.9366 13.7053 28.9366 13.7053L24.9206 23.2775H27.7276L28.289 21.7412H31.7121L32.0275 23.2775ZM29.0645 19.6189L30.4793 15.7484L31.2753 19.6189H29.0645ZM25.1312 15.422L25.5155 13.201C25.5155 13.201 24.3297 12.75 23.0936 12.75C21.7573 12.75 18.584 13.334 18.584 16.1739C18.584 18.8459 22.3084 18.8791 22.3084 20.2826C22.3084 21.6861 18.9678 21.4346 17.8653 20.5496L17.4649 22.8719C17.4649 22.8719 18.6673 23.4559 20.5043 23.4559C22.3419 23.4559 25.114 22.5045 25.114 19.9149C25.114 17.2258 21.3562 16.9754 21.3562 15.8063C21.3564 14.6368 23.9789 14.787 25.1312 15.422Z" fill="#94A3B8"/>
<path d="M7.97716 18.517L7.0711 13.8658C7.0711 13.8658 6.96154 12.9345 5.79376 12.9345H1.5498L1.5 13.1097C1.5 13.1097 3.53981 13.5324 5.49635 15.1163C7.36713 16.6302 7.97716 18.517 7.97716 18.517Z" fill="#334155"/>
</svg>
